<svg version="1.1" viewBox="0.0 0.0 707.0 375.0" fill="none" stroke="none" stroke-linecap="square" stroke-miterlimit="10" width="707" height="375" xmlns:xlink="http://www.w3.org/1999/xlink" xmlns="http://www.w3.org/2000/svg"><path fill="#ffffff" d="M0 0L707.0 0L707.0 375.0L0 375.0L0 0Z" fill-rule="nonzero"/><path stroke="#cccccc" stroke-width="1.0" stroke-linecap="butt" d="M77.5 88.5L77.5 304.5" fill-rule="nonzero"/><path stroke="#cccccc" stroke-width="1.0" stroke-linecap="butt" d="M122.5 88.5L122.5 304.5" fill-rule="nonzero"/><path stroke="#cccccc" stroke-width="1.0" stroke-linecap="butt" d="M168.5 88.5L168.5 304.5" fill-rule="nonzero"/><path stroke="#cccccc" stroke-width="1.0" stroke-linecap="butt" d="M213.5 88.5L213.5 304.5" fill-rule="nonzero"/><path stroke="#cccccc" stroke-width="1.0" stroke-linecap="butt" d="M258.5 88.5L258.5 304.5" fill-rule="nonzero"/><path stroke="#cccccc" stroke-width="1.0" stroke-linecap="butt" d="M303.5 88.5L303.5 304.5" fill-rule="nonzero"/><path stroke="#cccccc" stroke-width="1.0" stroke-linecap="butt" d="M349.5 88.5L349.5 304.5" fill-rule="nonzero"/><path stroke="#cccccc" stroke-width="1.0" stroke-linecap="butt" d="M394.5 88.5L394.5 304.5" fill-rule="nonzero"/><path stroke="#cccccc" stroke-width="1.0" stroke-linecap="butt" d="M439.5 88.5L439.5 304.5" fill-rule="nonzero"/><path stroke="#cccccc" stroke-width="1.0" stroke-linecap="butt" d="M484.5 88.5L484.5 304.5" fill-rule="nonzero"/><path stroke="#cccccc" stroke-width="1.0" stroke-linecap="butt" d="M529.5 88.5L529.5 304.5" fill-rule="nonzero"/><path stroke="#cccccc" stroke-width="1.0" stroke-linecap="butt" d="M575.5 88.5L575.5 304.5" fill-rule="nonzero"/><path stroke="#cccccc" stroke-width="1.0" stroke-linecap="butt" d="M620.5 88.5L620.5 304.5" fill-rule="nonzero"/><path stroke="#cccccc" stroke-width="1.0" stroke-linecap="butt" d="M665.5 88.5L665.5 304.5" fill-rule="nonzero"/><path stroke="#000000" stroke-width="1.0" stroke-linecap="butt" stroke-opacity="0.0" d="M100.5 88.5L100.5 304.5" fill-rule="nonzero"/><path stroke="#000000" stroke-width="1.0" stroke-linecap="butt" stroke-opacity="0.0" d="M145.5 88.5L145.5 304.5" fill-rule="nonzero"/><path stroke="#000000" stroke-width="1.0" stroke-linecap="butt" stroke-opacity="0.0" d="M190.5 88.5L190.5 304.5" fill-rule="nonzero"/><path stroke="#000000" stroke-width="1.0" stroke-linecap="butt" stroke-opacity="0.0" d="M236.5 88.5L236.5 304.5" fill-rule="nonzero"/><path stroke="#000000" stroke-width="1.0" stroke-linecap="butt" stroke-opacity="0.0" d="M281.5 88.5L281.5 304.5" fill-rule="nonzero"/><path stroke="#000000" stroke-width="1.0" stroke-linecap="butt" stroke-opacity="0.0" d="M326.5 88.5L326.5 304.5" fill-rule="nonzero"/><path stroke="#000000" stroke-width="1.0" stroke-linecap="butt" stroke-opacity="0.0" d="M371.5 88.5L371.5 304.5" fill-rule="nonzero"/><path stroke="#000000" stroke-width="1.0" stroke-linecap="butt" stroke-opacity="0.0" d="M416.5 88.5L416.5 304.5" fill-rule="nonzero"/><path stroke="#000000" stroke-width="1.0" stroke-linecap="butt" stroke-opacity="0.0" d="M462.5 88.5L462.5 304.5" fill-rule="nonzero"/><path stroke="#000000" stroke-width="1.0" stroke-linecap="butt" stroke-opacity="0.0" d="M507.5 88.5L507.5 304.5" fill-rule="nonzero"/><path stroke="#000000" stroke-width="1.0" stroke-linecap="butt" stroke-opacity="0.0" d="M552.5 88.5L552.5 304.5" fill-rule="nonzero"/><path stroke="#000000" stroke-width="1.0" stroke-linecap="butt" stroke-opacity="0.0" d="M597.5 88.5L597.5 304.5" fill-rule="nonzero"/><path stroke="#000000" stroke-width="1.0" stroke-linecap="butt" stroke-opacity="0.0" d="M643.5 88.5L643.5 304.5" fill-rule="nonzero"/><path stroke="#333333" stroke-width="1.0" stroke-linecap="butt" d="M77.5 304.5L688.5 304.5" fill-rule="nonzero"/><path stroke="#cccccc" stroke-width="1.0" stroke-linecap="butt" d="M77.5 253.5L688.5 253.5" fill-rule="nonzero"/><path stroke="#cccccc" stroke-width="1.0" stroke-linecap="butt" d="M77.5 202.5L688.5 202.5" fill-rule="nonzero"/><path stroke="#cccccc" stroke-width="1.0" stroke-linecap="butt" d="M77.5 152.5L688.5 152.5" fill-rule="nonzero"/><path stroke="#cccccc" stroke-width="1.0" stroke-linecap="butt" d="M77.5 101.5L688.5 101.5" fill-rule="nonzero"/><clipPath id="id_0"><path d="M77.75 88.75L688.25 88.75L688.25 304.25L77.75 304.25L77.75 88.75Z" clip-rule="nonzero"/></clipPath><path fill="#4285f4" fill-opacity="0.3019608" clip-path="url(#id_0)" d="M77.75 101.42647L100.361115 108.670166L122.97222 115.913864L145.58333 123.15756L168.19444 130.40126L190.80556 137.64496L213.41667 144.88866L236.02777 152.13235L258.6389 159.37605L281.25 166.61975L303.8611 173.86345L326.47223 181.10715L349.08334 188.35085L371.69446 195.59454L394.30554 202.83824L416.91666 210.08194L439.52777 217.32564L462.1389 224.56932L484.75 231.81302L507.3611 239.05672L529.9722 246.30042L552.5833 254.7514L575.19446 263.2024L597.80554 271.65335L620.4167 280.10434L643.0278 288.55533L665.6389 297.00632L688.25 304.25L688.25 304.25L665.6389 304.25L643.0278 304.25L620.4167 304.25L597.80554 304.25L575.19446 304.25L552.5833 304.25L529.9722 304.25L507.3611 304.25L484.75 304.25L462.1389 304.25L439.52777 304.25L416.91666 304.25L394.30554 304.25L371.69446 304.25L349.08334 304.25L326.47223 304.25L303.8611 304.25L281.25 304.25L258.6389 304.25L236.02777 304.25L213.41667 304.25L190.80556 304.25L168.19444 304.25L145.58333 304.25L122.97222 304.25L100.361115 304.25L77.75 304.25Z" fill-rule="nonzero"/><path fill="#ea4335" fill-opacity="0.3019608" clip-path="url(#id_0)" d="M77.75 101.42647L100.361115 105.22941L122.97222 116.63824L145.58333 124.24412L168.19444 131.85L190.80556 138.18823L213.41667 147.06177L236.02777 150.8647L258.6389 161.00589L281.25 171.14706L303.8611 180.02058L326.47223 190.16176L349.08334 196.5L371.69446 201.57059L394.30554 205.37354L416.91666 212.97942L439.52777 225.65588L462.1389 231.99411L484.75 243.40294L507.3611 247.20589L529.9722 254.81177L552.5833 254.81177L575.19446 267.48822L597.80554 280.1647L620.4167 286.50293L643.0278 292.8412L665.6389 297.91177L688.25 304.25L688.25 304.25L665.6389 304.25L643.0278 304.25L620.4167 304.25L597.80554 304.25L575.19446 304.25L552.5833 304.25L529.9722 304.25L507.3611 304.25L484.75 304.25L462.1389 304.25L439.52777 304.25L416.91666 304.25L394.30554 304.25L371.69446 304.25L349.08334 304.25L326.47223 304.25L303.8611 304.25L281.25 304.25L258.6389 304.25L236.02777 304.25L213.41667 304.25L190.80556 304.25L168.19444 304.25L145.58333 304.25L122.97222 304.25L100.361115 304.25L77.75 304.25Z" fill-rule="nonzero"/><path stroke="#4285f4" stroke-width="2.0" stroke-linecap="butt" stroke-dasharray="8.0,6.0" clip-path="url(#id_0)" d="M77.75 101.42647L100.361115 108.670166L122.97222 115.913864L145.58333 123.15756L168.19444 130.40126L190.80556 137.64496L213.41667 144.88866L236.02777 152.13235L258.6389 159.37605L281.25 166.61975L303.8611 173.86345L326.47223 181.10715L349.08334 188.35085L371.69446 195.59454L394.30554 202.83824L416.91666 210.08194L439.52777 217.32564L462.1389 224.56932L484.75 231.81302L507.3611 239.05672L529.9722 246.30042L552.5833 254.7514L575.19446 263.2024L597.80554 271.65335L620.4167 280.10434L643.0278 288.55533L665.6389 297.00632L688.25 304.25" fill-rule="nonzero"/><path stroke="#ea4335" stroke-width="2.0" stroke-linecap="butt" clip-path="url(#id_0)" d="M77.75 101.42647L100.361115 105.22941L122.97222 116.63824L145.58333 124.24412L168.19444 131.85L190.80556 138.18823L213.41667 147.06177L236.02777 150.8647L258.6389 161.00589L281.25 171.14706L303.8611 180.02058L326.47223 190.16176L349.08334 196.5L371.69446 201.57059L394.30554 205.37354L416.91666 212.97942L439.52777 225.65588L462.1389 231.99411L484.75 243.40294L507.3611 247.20589L529.9722 254.81177L552.5833 254.81177L575.19446 267.48822L597.80554 280.1647L620.4167 286.50293L643.0278 292.8412L665.6389 297.91177L688.25 304.25" fill-rule="nonzero"/><path fill="#000000" fill-opacity="0.0" clip-path="url(#id_0)" d="M80.75 101.42647C80.75 103.08333 79.40685 104.42647 77.75 104.42647C76.09315 104.42647 74.75 103.08333 74.75 101.42647C74.75 99.769615 76.09315 98.42647 77.75 98.42647C79.40685 98.42647 80.75 99.769615 80.75 101.42647Z" fill-rule="nonzero"/><path fill="#000000" fill-opacity="0.0" clip-path="url(#id_0)" d="M103.361115 108.670166C103.361115 110.32702 102.01797 111.670166 100.361115 111.670166C98.704254 111.670166 97.361115 110.32702 97.361115 108.670166C97.361115 107.01331 98.704254 105.670166 100.361115 105.670166C102.01797 105.670166 103.361115 107.01331 103.361115 108.670166Z" fill-rule="nonzero"/><path fill="#000000" fill-opacity="0.0" clip-path="url(#id_0)" d="M125.97222 115.913864C125.97222 117.57072 124.629074 118.913864 122.97222 118.913864C121.31537 118.913864 119.97222 117.57072 119.97222 115.913864C119.97222 114.25701 121.31537 112.913864 122.97222 112.913864C124.629074 112.913864 125.97222 114.25701 125.97222 115.913864Z" fill-rule="nonzero"/><path fill="#000000" fill-opacity="0.0" clip-path="url(#id_0)" d="M148.58333 123.15756C148.58333 124.814415 147.24019 126.15756 145.58333 126.15756C143.92648 126.15756 142.58333 124.814415 142.58333 123.15756C142.58333 121.50071 143.92648 120.15756 145.58333 120.15756C147.24019 120.15756 148.58333 121.50071 148.58333 123.15756Z" fill-rule="nonzero"/><path fill="#000000" fill-opacity="0.0" clip-path="url(#id_0)" d="M171.19444 130.40126C171.19444 132.05812 169.8513 133.40126 168.19444 133.40126C166.5376 133.40126 165.19444 132.05812 165.19444 130.40126C165.19444 128.7444 166.5376 127.40126 168.19444 127.40126C169.8513 127.40126 171.19444 128.7444 171.19444 130.40126Z" fill-rule="nonzero"/><path fill="#000000" fill-opacity="0.0" clip-path="url(#id_0)" d="M193.80556 137.64496C193.80556 139.30182 192.4624 140.64496 190.80556 140.64496C189.1487 140.64496 187.80556 139.30182 187.80556 137.64496C187.80556 135.9881 189.1487 134.64496 190.80556 134.64496C192.4624 134.64496 193.80556 135.9881 193.80556 137.64496Z" fill-rule="nonzero"/><path fill="#000000" fill-opacity="0.0" clip-path="url(#id_0)" d="M216.41667 144.88866C216.41667 146.54552 215.07352 147.88866 213.41667 147.88866C211.75981 147.88866 210.41667 146.54552 210.41667 144.88866C210.41667 143.2318 211.75981 141.88866 213.41667 141.88866C215.07352 141.88866 216.41667 143.2318 216.41667 144.88866Z" fill-rule="nonzero"/><path fill="#000000" fill-opacity="0.0" clip-path="url(#id_0)" d="M239.02777 152.13235C239.02777 153.7892 237.68463 155.13235 236.02777 155.13235C234.37093 155.13235 233.02777 153.7892 233.02777 152.13235C233.02777 150.4755 234.37093 149.13235 236.02777 149.13235C237.68463 149.13235 239.02777 150.4755 239.02777 152.13235Z" fill-rule="nonzero"/><path fill="#000000" fill-opacity="0.0" clip-path="url(#id_0)" d="M261.6389 159.37605C261.6389 161.0329 260.29575 162.37605 258.6389 162.37605C256.98203 162.37605 255.63889 161.0329 255.63889 159.37605C255.63889 157.7192 256.98203 156.37605 258.6389 156.37605C260.29575 156.37605 261.6389 157.7192 261.6389 159.37605Z" fill-rule="nonzero"/><path fill="#000000" fill-opacity="0.0" clip-path="url(#id_0)" d="M284.25 166.61975C284.25 168.2766 282.90686 169.61975 281.25 169.61975C279.59314 169.61975 278.25 168.2766 278.25 166.61975C278.25 164.96289 279.59314 163.61975 281.25 163.61975C282.90686 163.61975 284.25 164.96289 284.25 166.61975Z" fill-rule="nonzero"/><path fill="#000000" fill-opacity="0.0" clip-path="url(#id_0)" d="M306.8611 173.86345C306.8611 175.5203 305.51797 176.86345 303.8611 176.86345C302.20425 176.86345 300.8611 175.5203 300.8611 173.86345C300.8611 172.20659 302.20425 170.86345 303.8611 170.86345C305.51797 170.86345 306.8611 172.20659 306.8611 173.86345Z" fill-rule="nonzero"/><path fill="#000000" fill-opacity="0.0" clip-path="url(#id_0)" d="M329.47223 181.10715C329.47223 182.76399 328.1291 184.10715 326.47223 184.10715C324.81537 184.10715 323.47223 182.76399 323.47223 181.10715C323.47223 179.45029 324.81537 178.10715 326.47223 178.10715C328.1291 178.10715 329.47223 179.45029 329.47223 181.10715Z" fill-rule="nonzero"/><path fill="#000000" fill-opacity="0.0" clip-path="url(#id_0)" d="M352.08334 188.35085C352.08334 190.00769 350.74017 191.35085 349.08334 191.35085C347.42648 191.35085 346.08334 190.00769 346.08334 188.35085C346.08334 186.69398 347.42648 185.35085 349.08334 185.35085C350.74017 185.35085 352.08334 186.69398 352.08334 188.35085Z" fill-rule="nonzero"/><path fill="#000000" fill-opacity="0.0" clip-path="url(#id_0)" d="M374.69446 195.59454C374.69446 197.25139 373.3513 198.59454 371.69446 198.59454C370.0376 198.59454 368.69446 197.25139 368.69446 195.59454C368.69446 193.93768 370.0376 192.59454 371.69446 192.59454C373.3513 192.59454 374.69446 193.93768 374.69446 195.59454Z" fill-rule="nonzero"/><path fill="#000000" fill-opacity="0.0" clip-path="url(#id_0)" d="M397.30554 202.83824C397.30554 204.49509 395.9624 205.83824 394.30554 205.83824C392.6487 205.83824 391.30554 204.49509 391.30554 202.83824C391.30554 201.18138 392.6487 199.83824 394.30554 199.83824C395.9624 199.83824 397.30554 201.18138 397.30554 202.83824Z" fill-rule="nonzero"/><path fill="#000000" fill-opacity="0.0" clip-path="url(#id_0)" d="M419.91666 210.08194C419.91666 211.73878 418.57352 213.08194 416.91666 213.08194C415.25983 213.08194 413.91666 211.73878 413.91666 210.08194C413.91666 208.42508 415.25983 207.08194 416.91666 207.08194C418.57352 207.08194 419.91666 208.42508 419.91666 210.08194Z" fill-rule="nonzero"/><path fill="#000000" fill-opacity="0.0" clip-path="url(#id_0)" d="M442.52777 217.32564C442.52777 218.98248 441.18463 220.32564 439.52777 220.32564C437.8709 220.32564 436.52777 218.98248 436.52777 217.32564C436.52777 215.66878 437.8709 214.32564 439.52777 214.32564C441.18463 214.32564 442.52777 215.66878 442.52777 217.32564Z" fill-rule="nonzero"/><path fill="#000000" fill-opacity="0.0" clip-path="url(#id_0)" d="M465.1389 224.56932C465.1389 226.22618 463.79575 227.56932 462.1389 227.56932C460.48203 227.56932 459.1389 226.22618 459.1389 224.56932C459.1389 222.91248 460.48203 221.56932 462.1389 221.56932C463.79575 221.56932 465.1389 222.91248 465.1389 224.56932Z" fill-rule="nonzero"/><path fill="#000000" fill-opacity="0.0" clip-path="url(#id_0)" d="M487.75 231.81302C487.75 233.46988 486.40686 234.81302 484.75 234.81302C483.09314 234.81302 481.75 233.46988 481.75 231.81302C481.75 230.15617 483.09314 228.81302 484.75 228.81302C486.40686 228.81302 487.75 230.15617 487.75 231.81302Z" fill-rule="nonzero"/><path fill="#000000" fill-opacity="0.0" clip-path="url(#id_0)" d="M510.3611 239.05672C510.3611 240.71358 509.01797 242.05672 507.3611 242.05672C505.70425 242.05672 504.3611 240.71358 504.3611 239.05672C504.3611 237.39987 505.70425 236.05672 507.3611 236.05672C509.01797 236.05672 510.3611 237.39987 510.3611 239.05672Z" fill-rule="nonzero"/><path fill="#000000" fill-opacity="0.0" clip-path="url(#id_0)" d="M532.9722 246.30042C532.9722 247.95728 531.6291 249.30042 529.9722 249.30042C528.31537 249.30042 526.9722 247.95728 526.9722 246.30042C526.9722 244.64357 528.31537 243.30042 529.9722 243.30042C531.6291 243.30042 532.9722 244.64357 532.9722 246.30042Z" fill-rule="nonzero"/><path fill="#000000" fill-opacity="0.0" clip-path="url(#id_0)" d="M555.5833 254.7514C555.5833 256.40826 554.2402 257.7514 552.5833 257.7514C550.92645 257.7514 549.5833 256.40826 549.5833 254.7514C549.5833 253.09454 550.92645 251.7514 552.5833 251.7514C554.2402 251.7514 555.5833 253.09454 555.5833 254.7514Z" fill-rule="nonzero"/><path fill="#000000" fill-opacity="0.0" clip-path="url(#id_0)" d="M578.19446 263.2024C578.19446 264.85922 576.8513 266.2024 575.19446 266.2024C573.5376 266.2024 572.19446 264.85922 572.19446 263.2024C572.19446 261.54553 573.5376 260.2024 575.19446 260.2024C576.8513 260.2024 578.19446 261.54553 578.19446 263.2024Z" fill-rule="nonzero"/><path fill="#000000" fill-opacity="0.0" clip-path="url(#id_0)" d="M600.80554 271.65335C600.80554 273.3102 599.4624 274.65335 597.80554 274.65335C596.1487 274.65335 594.80554 273.3102 594.80554 271.65335C594.80554 269.99652 596.1487 268.65335 597.80554 268.65335C599.4624 268.65335 600.80554 269.99652 600.80554 271.65335Z" fill-rule="nonzero"/><path fill="#000000" fill-opacity="0.0" clip-path="url(#id_0)" d="M623.4167 280.10434C623.4167 281.7612 622.07355 283.10434 620.4167 283.10434C618.7598 283.10434 617.4167 281.7612 617.4167 280.10434C617.4167 278.44748 618.7598 277.10434 620.4167 277.10434C622.07355 277.10434 623.4167 278.44748 623.4167 280.10434Z" fill-rule="nonzero"/><path fill="#000000" fill-opacity="0.0" clip-path="url(#id_0)" d="M646.0278 288.55533C646.0278 290.2122 644.68463 291.55533 643.0278 291.55533C641.3709 291.55533 640.0278 290.2122 640.0278 288.55533C640.0278 286.89847 641.3709 285.55533 643.0278 285.55533C644.68463 285.55533 646.0278 286.89847 646.0278 288.55533Z" fill-rule="nonzero"/><path fill="#000000" fill-opacity="0.0" clip-path="url(#id_0)" d="M668.6389 297.00632C668.6389 298.66315 667.2957 300.00632 665.6389 300.00632C663.98206 300.00632 662.6389 298.66315 662.6389 297.00632C662.6389 295.34946 663.98206 294.00632 665.6389 294.00632C667.2957 294.00632 668.6389 295.34946 668.6389 297.00632Z" fill-rule="nonzero"/><path fill="#000000" fill-opacity="0.0" clip-path="url(#id_0)" d="M691.25 304.25C691.25 305.90686 689.90686 307.25 688.25 307.25C686.59314 307.25 685.25 305.90686 685.25 304.25C685.25 302.59314 686.59314 301.25 688.25 301.25C689.90686 301.25 691.25 302.59314 691.25 304.25Z" fill-rule="nonzero"/><path fill="#000000" fill-opacity="0.0" clip-path="url(#id_0)" d="M80.75 101.42647C80.75 103.08333 79.40685 104.42647 77.75 104.42647C76.09315 104.42647 74.75 103.08333 74.75 101.42647C74.75 99.769615 76.09315 98.42647 77.75 98.42647C79.40685 98.42647 80.75 99.769615 80.75 101.42647Z" fill-rule="nonzero"/><path fill="#000000" fill-opacity="0.0" clip-path="url(#id_0)" d="M103.361115 105.22941C103.361115 106.88627 102.01797 108.22941 100.361115 108.22941C98.704254 108.22941 97.361115 106.88627 97.361115 105.22941C97.361115 103.572556 98.704254 102.22941 100.361115 102.22941C102.01797 102.22941 103.361115 103.572556 103.361115 105.22941Z" fill-rule="nonzero"/><path fill="#000000" fill-opacity="0.0" clip-path="url(#id_0)" d="M125.97222 116.63824C125.97222 118.29509 124.629074 119.63824 122.97222 119.63824C121.31537 119.63824 119.97222 118.29509 119.97222 116.63824C119.97222 114.981384 121.31537 113.63824 122.97222 113.63824C124.629074 113.63824 125.97222 114.981384 125.97222 116.63824Z" fill-rule="nonzero"/><path fill="#000000" fill-opacity="0.0" clip-path="url(#id_0)" d="M148.58333 124.24412C148.58333 125.90097 147.24019 127.24412 145.58333 127.24412C143.92648 127.24412 142.58333 125.90097 142.58333 124.24412C142.58333 122.587265 143.92648 121.24412 145.58333 121.24412C147.24019 121.24412 148.58333 122.587265 148.58333 124.24412Z" fill-rule="nonzero"/><path fill="#000000" fill-opacity="0.0" clip-path="url(#id_0)" d="M171.19444 131.85C171.19444 133.50685 169.8513 134.85 168.19444 134.85C166.5376 134.85 165.19444 133.50685 165.19444 131.85C165.19444 130.19315 166.5376 128.85 168.19444 128.85C169.8513 128.85 171.19444 130.19315 171.19444 131.85Z" fill-rule="nonzero"/><path fill="#000000" fill-opacity="0.0" clip-path="url(#id_0)" d="M193.80556 138.18823C193.80556 139.8451 192.4624 141.18823 190.80556 141.18823C189.1487 141.18823 187.80556 139.8451 187.80556 138.18823C187.80556 136.53139 189.1487 135.18823 190.80556 135.18823C192.4624 135.18823 193.80556 136.53139 193.80556 138.18823Z" fill-rule="nonzero"/><path fill="#000000" fill-opacity="0.0" clip-path="url(#id_0)" d="M216.41667 147.06177C216.41667 148.71861 215.07352 150.06177 213.41667 150.06177C211.75981 150.06177 210.41667 148.71861 210.41667 147.06177C210.41667 145.4049 211.75981 144.06177 213.41667 144.06177C215.07352 144.06177 216.41667 145.4049 216.41667 147.06177Z" fill-rule="nonzero"/><path fill="#000000" fill-opacity="0.0" clip-path="url(#id_0)" d="M239.02777 150.8647C239.02777 152.52156 237.68463 153.8647 236.02777 153.8647C234.37093 153.8647 233.02777 152.52156 233.02777 150.8647C233.02777 149.20786 234.37093 147.8647 236.02777 147.8647C237.68463 147.8647 239.02777 149.20786 239.02777 150.8647Z" fill-rule="nonzero"/><path fill="#000000" fill-opacity="0.0" clip-path="url(#id_0)" d="M261.6389 161.00589C261.6389 162.66273 260.29575 164.00589 258.6389 164.00589C256.98203 164.00589 255.63889 162.66273 255.63889 161.00589C255.63889 159.34903 256.98203 158.00589 258.6389 158.00589C260.29575 158.00589 261.6389 159.34903 261.6389 161.00589Z" fill-rule="nonzero"/><path fill="#000000" fill-opacity="0.0" clip-path="url(#id_0)" d="M284.25 171.14706C284.25 172.80391 282.90686 174.14706 281.25 174.14706C279.59314 174.14706 278.25 172.80391 278.25 171.14706C278.25 169.4902 279.59314 168.14706 281.25 168.14706C282.90686 168.14706 284.25 169.4902 284.25 171.14706Z" fill-rule="nonzero"/><path fill="#000000" fill-opacity="0.0" clip-path="url(#id_0)" d="M306.8611 180.02058C306.8611 181.67744 305.51797 183.02058 303.8611 183.02058C302.20425 183.02058 300.8611 181.67744 300.8611 180.02058C300.8611 178.36374 302.20425 177.02058 303.8611 177.02058C305.51797 177.02058 306.8611 178.36374 306.8611 180.02058Z" fill-rule="nonzero"/><path fill="#000000" fill-opacity="0.0" clip-path="url(#id_0)" d="M329.47223 190.16176C329.47223 191.81862 328.1291 193.16176 326.47223 193.16176C324.81537 193.16176 323.47223 191.81862 323.47223 190.16176C323.47223 188.50491 324.81537 187.16176 326.47223 187.16176C328.1291 187.16176 329.47223 188.50491 329.47223 190.16176Z" fill-rule="nonzero"/><path fill="#000000" fill-opacity="0.0" clip-path="url(#id_0)" d="M352.08334 196.5C352.08334 198.15686 350.74017 199.5 349.08334 199.5C347.42648 199.5 346.08334 198.15686 346.08334 196.5C346.08334 194.84314 347.42648 193.5 349.08334 193.5C350.74017 193.5 352.08334 194.84314 352.08334 196.5Z" fill-rule="nonzero"/><path fill="#000000" fill-opacity="0.0" clip-path="url(#id_0)" d="M374.69446 201.57059C374.69446 203.22745 373.3513 204.57059 371.69446 204.57059C370.0376 204.57059 368.69446 203.22745 368.69446 201.57059C368.69446 199.91373 370.0376 198.57059 371.69446 198.57059C373.3513 198.57059 374.69446 199.91373 374.69446 201.57059Z" fill-rule="nonzero"/><path fill="#000000" fill-opacity="0.0" clip-path="url(#id_0)" d="M397.30554 205.37354C397.30554 207.03038 395.9624 208.37354 394.30554 208.37354C392.6487 208.37354 391.30554 207.03038 391.30554 205.37354C391.30554 203.71667 392.6487 202.37354 394.30554 202.37354C395.9624 202.37354 397.30554 203.71667 397.30554 205.37354Z" fill-rule="nonzero"/><path fill="#000000" fill-opacity="0.0" clip-path="url(#id_0)" d="M419.91666 212.97942C419.91666 214.63626 418.57352 215.97942 416.91666 215.97942C415.25983 215.97942 413.91666 214.63626 413.91666 212.97942C413.91666 211.32256 415.25983 209.97942 416.91666 209.97942C418.57352 209.97942 419.91666 211.32256 419.91666 212.97942Z" fill-rule="nonzero"/><path fill="#000000" fill-opacity="0.0" clip-path="url(#id_0)" d="M442.52777 225.65588C442.52777 227.31274 441.18463 228.65588 439.52777 228.65588C437.8709 228.65588 436.52777 227.31274 436.52777 225.65588C436.52777 223.99902 437.8709 222.65588 439.52777 222.65588C441.18463 222.65588 442.52777 223.99902 442.52777 225.65588Z" fill-rule="nonzero"/><path fill="#000000" fill-opacity="0.0" clip-path="url(#id_0)" d="M465.1389 231.99411C465.1389 233.65097 463.79575 234.99411 462.1389 234.99411C460.48203 234.99411 459.1389 233.65097 459.1389 231.99411C459.1389 230.33727 460.48203 228.99411 462.1389 228.99411C463.79575 228.99411 465.1389 230.33727 465.1389 231.99411Z" fill-rule="nonzero"/><path fill="#000000" fill-opacity="0.0" clip-path="url(#id_0)" d="M487.75 243.40294C487.75 245.0598 486.40686 246.40294 484.75 246.40294C483.09314 246.40294 481.75 245.0598 481.75 243.40294C481.75 241.7461 483.09314 240.40294 484.75 240.40294C486.40686 240.40294 487.75 241.7461 487.75 243.40294Z" fill-rule="nonzero"/><path fill="#000000" fill-opacity="0.0" clip-path="url(#id_0)" d="M510.3611 247.20589C510.3611 248.86273 509.01797 250.20589 507.3611 250.20589C505.70425 250.20589 504.3611 248.86273 504.3611 247.20589C504.3611 245.54903 505.70425 244.20589 507.3611 244.20589C509.01797 244.20589 510.3611 245.54903 510.3611 247.20589Z" fill-rule="nonzero"/><path fill="#000000" fill-opacity="0.0" clip-path="url(#id_0)" d="M532.9722 254.81177C532.9722 256.46863 531.6291 257.81177 529.9722 257.81177C528.31537 257.81177 526.9722 256.46863 526.9722 254.81177C526.9722 253.1549 528.31537 251.81177 529.9722 251.81177C531.6291 251.81177 532.9722 253.1549 532.9722 254.81177Z" fill-rule="nonzero"/><path fill="#000000" fill-opacity="0.0" clip-path="url(#id_0)" d="M555.5833 254.81177C555.5833 256.46863 554.2402 257.81177 552.5833 257.81177C550.92645 257.81177 549.5833 256.46863 549.5833 254.81177C549.5833 253.1549 550.92645 251.81177 552.5833 251.81177C554.2402 251.81177 555.5833 253.1549 555.5833 254.81177Z" fill-rule="nonzero"/><path fill="#000000" fill-opacity="0.0" clip-path="url(#id_0)" d="M578.19446 267.48822C578.19446 269.14508 576.8513 270.48822 575.19446 270.48822C573.5376 270.48822 572.19446 269.14508 572.19446 267.48822C572.19446 265.8314 573.5376 264.48822 575.19446 264.48822C576.8513 264.48822 578.19446 265.8314 578.19446 267.48822Z" fill-rule="nonzero"/><path fill="#000000" fill-opacity="0.0" clip-path="url(#id_0)" d="M600.80554 280.1647C600.80554 281.82156 599.4624 283.1647 597.80554 283.1647C596.1487 283.1647 594.80554 281.82156 594.80554 280.1647C594.80554 278.50784 596.1487 277.1647 597.80554 277.1647C599.4624 277.1647 600.80554 278.50784 600.80554 280.1647Z" fill-rule="nonzero"/><path fill="#000000" fill-opacity="0.0" clip-path="url(#id_0)" d="M623.4167 286.50293C623.4167 288.1598 622.07355 289.50293 620.4167 289.50293C618.7598 289.50293 617.4167 288.1598 617.4167 286.50293C617.4167 284.8461 618.7598 283.50293 620.4167 283.50293C622.07355 283.50293 623.4167 284.8461 623.4167 286.50293Z" fill-rule="nonzero"/><path fill="#000000" fill-opacity="0.0" clip-path="url(#id_0)" d="M646.0278 292.8412C646.0278 294.49802 644.68463 295.8412 643.0278 295.8412C641.3709 295.8412 640.0278 294.49802 640.0278 292.8412C640.0278 291.18433 641.3709 289.8412 643.0278 289.8412C644.68463 289.8412 646.0278 291.18433 646.0278 292.8412Z" fill-rule="nonzero"/><path fill="#000000" fill-opacity="0.0" clip-path="url(#id_0)" d="M668.6389 297.91177C668.6389 299.56863 667.2957 300.91177 665.6389 300.91177C663.98206 300.91177 662.6389 299.56863 662.6389 297.91177C662.6389 296.2549 663.98206 294.91177 665.6389 294.91177C667.2957 294.91177 668.6389 296.2549 668.6389 297.91177Z" fill-rule="nonzero"/><path fill="#000000" fill-opacity="0.0" clip-path="url(#id_0)" d="M691.25 304.25C691.25 305.90686 689.90686 307.25 688.25 307.25C686.59314 307.25 685.25 305.90686 685.25 304.25C685.25 302.59314 686.59314 301.25 688.25 301.25C689.90686 301.25 691.25 302.59314 691.25 304.25Z" fill-rule="nonzero"/><path fill="#000000" d="M370.92188 353.25L370.92188 344.65625L373.89062 344.65625Q374.89062 344.65625 375.42188 344.78125Q376.15625 344.95312 376.67188 345.39062Q377.35938 345.96875 377.6875 346.875Q378.03125 347.76562 378.03125 348.90625Q378.03125 349.89062 377.79688 350.64062Q377.57812 351.39062 377.21875 351.89062Q376.85938 352.39062 376.42188 352.67188Q376.0 352.95312 375.40625 353.10938Q374.8125 353.25 374.03125 353.25L370.92188 353.25ZM372.0625 352.23438L373.89062 352.23438Q374.75 352.23438 375.23438 352.07812Q375.71875 351.92188 376.0 351.625Q376.40625 351.23438 376.625 350.54688Q376.85938 349.85938 376.85938 348.89062Q376.85938 347.54688 376.40625 346.82812Q375.96875 346.09375 375.34375 345.84375Q374.875 345.67188 373.875 345.67188L372.0625 345.67188L372.0625 352.23438ZM383.85938 352.48438Q383.26562 352.98438 382.71875 353.1875Q382.1875 353.39062 381.5625 353.39062Q380.53125 353.39062 379.98438 352.89062Q379.4375 352.39062 379.4375 351.60938Q379.4375 351.15625 379.64062 350.78125Q379.84375 350.39062 380.1875 350.17188Q380.53125 349.9375 380.95312 349.82812Q381.25 349.73438 381.89062 349.65625Q383.15625 349.51562 383.76562 349.29688Q383.76562 349.07812 383.76562 349.03125Q383.76562 348.375 383.46875 348.10938Q383.0625 347.76562 382.26562 347.76562Q381.53125 347.76562 381.17188 348.03125Q380.8125 348.28125 380.64062 348.9375L379.60938 348.79688Q379.75 348.14062 380.07812 347.73438Q380.40625 347.32812 381.01562 347.10938Q381.625 346.89062 382.42188 346.89062Q383.21875 346.89062 383.71875 347.07812Q384.21875 347.26562 384.45312 347.54688Q384.6875 347.82812 384.78125 348.26562Q384.82812 348.53125 384.82812 349.23438L384.82812 350.64062Q384.82812 352.10938 384.89062 352.5Q384.96875 352.89062 385.17188 353.25L384.0625 353.25Q383.90625 352.92188 383.85938 352.48438ZM383.76562 350.125Q383.1875 350.35938 382.04688 350.53125Q381.39062 350.625 381.125 350.75Q380.85938 350.85938 380.70312 351.07812Q380.5625 351.29688 380.5625 351.57812Q380.5625 352.0 380.875 352.28125Q381.20312 352.5625 381.8125 352.5625Q382.42188 352.5625 382.89062 352.29688Q383.375 352.03125 383.59375 351.5625Q383.76562 351.20312 383.76562 350.51562L383.76562 350.125ZM389.09375 352.3125L389.25 353.23438Q388.79688 353.32812 388.45312 353.32812Q387.875 353.32812 387.5625 353.15625Q387.25 352.96875 387.10938 352.67188Q386.98438 352.375 386.98438 351.42188L386.98438 347.84375L386.21875 347.84375L386.21875 347.03125L386.98438 347.03125L386.98438 345.48438L388.03125 344.85938L388.03125 347.03125L389.09375 347.03125L389.09375 347.84375L388.03125 347.84375L388.03125 351.48438Q388.03125 351.9375 388.07812 352.0625Q388.14062 352.1875 388.26562 352.26562Q388.39062 352.34375 388.625 352.34375Q388.8125 352.34375 389.09375 352.3125ZM394.04688 351.25L395.14062 351.375Q394.89062 352.32812 394.1875 352.85938Q393.48438 353.39062 392.40625 353.39062Q391.04688 353.39062 390.23438 352.54688Q389.4375 351.70312 389.4375 350.1875Q389.4375 348.625 390.25 347.76562Q391.0625 346.89062 392.34375 346.89062Q393.59375 346.89062 394.375 347.73438Q395.17188 348.57812 395.17188 350.125Q395.17188 350.21875 395.17188 350.40625L390.53125 350.40625Q390.59375 351.4375 391.10938 351.98438Q391.625 352.51562 392.40625 352.51562Q392.98438 352.51562 393.39062 352.21875Q393.8125 351.90625 394.04688 351.25ZM390.59375 349.54688L394.0625 349.54688Q394.0 348.75 393.67188 348.35938Q393.15625 347.75 392.35938 347.75Q391.625 347.75 391.125 348.23438Q390.64062 348.71875 390.59375 349.54688Z" fill-rule="nonzero"/><path fill="#000000" d="M29.75 244.0625L21.15625 244.0625L21.15625 240.25Q21.15625 239.09375 21.390625 238.5Q21.625 237.90625 22.21875 237.54688Q22.796875 237.1875 23.5 237.1875Q24.421875 237.1875 25.046875 237.78125Q25.671875 238.375 25.84375 239.60938Q26.0625 239.15625 26.265625 238.92188Q26.71875 238.42188 27.40625 237.98438L29.75 236.48438L29.75 237.92188L27.96875 239.04688Q27.1875 239.54688 26.78125 239.875Q26.375 240.1875 26.21875 240.45312Q26.046875 240.70312 25.96875 240.96875Q25.9375 241.15625 25.9375 241.59375L25.9375 242.92188L29.75 242.92188L29.75 244.0625ZM24.953125 242.92188L24.953125 240.46875Q24.953125 239.70312 24.796875 239.26562Q24.625 238.8125 24.28125 238.59375Q23.921875 238.35938 23.5 238.35938Q22.890625 238.35938 22.5 238.8125Q22.109375 239.25 22.109375 240.20312L22.109375 242.92188L24.953125 242.92188ZM27.75 230.95312L27.875 229.85938Q28.828125 230.10938 29.359375 230.8125Q29.890625 231.51562 29.890625 232.59375Q29.890625 233.95312 29.046875 234.76562Q28.203125 235.5625 26.6875 235.5625Q25.125 235.5625 24.265625 234.75Q23.390625 233.9375 23.390625 232.65625Q23.390625 231.40625 24.234375 230.625Q25.078125 229.82812 26.625 229.82812Q26.71875 229.82812 26.90625 229.82812L26.90625 234.46875Q27.9375 234.40625 28.484375 233.89062Q29.015625 233.375 29.015625 232.59375Q29.015625 232.01562 28.71875 231.60938Q28.40625 231.1875 27.75 230.95312ZM26.046875 234.40625L26.046875 230.9375Q25.25 231.0 24.859375 231.32812Q24.25 231.84375 24.25 232.64062Q24.25 233.375 24.734375 233.875Q25.21875 234.35938 26.046875 234.40625ZM29.75 228.20312L23.53125 228.20312L23.53125 227.26562L24.40625 227.26562Q23.9375 226.96875 23.671875 226.48438Q23.390625 226.0 23.390625 225.375Q23.390625 224.6875 23.671875 224.25Q23.953125 223.79688 24.46875 223.625Q23.390625 222.875 23.390625 221.70312Q23.390625 220.76562 23.90625 220.28125Q24.40625 219.78125 25.484375 219.78125L29.75 219.78125L29.75 220.82812L25.828125 220.82812Q25.203125 220.82812 24.921875 220.9375Q24.640625 221.03125 24.46875 221.29688Q24.296875 221.5625 24.296875 221.9375Q24.296875 222.59375 24.734375 223.03125Q25.171875 223.45312 26.140625 223.45312L29.75 223.45312L29.75 224.51562L25.703125 224.51562Q25.0 224.51562 24.65625 224.78125Q24.296875 225.03125 24.296875 225.60938Q24.296875 226.0625 24.53125 226.4375Q24.765625 226.8125 25.21875 226.98438Q25.671875 227.15625 26.515625 227.15625L29.75 227.15625L29.75 228.20312ZM28.984375 213.14062Q29.484375 213.73438 29.6875 214.28125Q29.890625 214.8125 29.890625 215.4375Q29.890625 216.46875 29.390625 217.01562Q28.890625 217.5625 28.109375 217.5625Q27.65625 217.5625 27.28125 217.35938Q26.890625 217.15625 26.671875 216.8125Q26.4375 216.46875 26.328125 216.04688Q26.234375 215.75 26.15625 215.10938Q26.015625 213.84375 25.796875 213.23438Q25.578125 213.23438 25.53125 213.23438Q24.875 213.23438 24.609375 213.53125Q24.265625 213.9375 24.265625 214.73438Q24.265625 215.46875 24.53125 215.82812Q24.78125 216.1875 25.4375 216.35938L25.296875 217.39062Q24.640625 217.25 24.234375 216.92188Q23.828125 216.59375 23.609375 215.98438Q23.390625 215.375 23.390625 214.57812Q23.390625 213.78125 23.578125 213.28125Q23.765625 212.78125 24.046875 212.54688Q24.328125 212.3125 24.765625 212.21875Q25.03125 212.17188 25.734375 212.17188L27.140625 212.17188Q28.609375 212.17188 29.0 212.10938Q29.390625 212.03125 29.75 211.82812L29.75 212.9375Q29.421875 213.09375 28.984375 213.14062ZM26.625 213.23438Q26.859375 213.8125 27.03125 214.95312Q27.125 215.60938 27.25 215.875Q27.359375 216.14062 27.578125 216.29688Q27.796875 216.4375 28.078125 216.4375Q28.5 216.4375 28.78125 216.125Q29.0625 215.79688 29.0625 215.1875Q29.0625 214.57812 28.796875 214.10938Q28.53125 213.625 28.0625 213.40625Q27.703125 213.23438 27.015625 213.23438L26.625 213.23438ZM22.375 210.20312L21.15625 210.20312L21.15625 209.14062L22.375 209.14062L22.375 210.20312ZM29.75 210.20312L23.53125 210.20312L23.53125 209.14062L29.75 209.14062L29.75 210.20312ZM29.75 207.20312L23.53125 207.20312L23.53125 206.26562L24.40625 206.26562Q23.390625 205.57812 23.390625 204.28125Q23.390625 203.71875 23.59375 203.25Q23.796875 202.76562 24.125 202.53125Q24.453125 202.29688 24.890625 202.20312Q25.1875 202.15625 25.921875 202.15625L29.75 202.15625L29.75 203.20312L25.96875 203.20312Q25.3125 203.20312 25.0 203.32812Q24.6875 203.45312 24.5 203.76562Q24.296875 204.07812 24.296875 204.5Q24.296875 205.17188 24.734375 205.67188Q25.15625 206.15625 26.34375 206.15625L29.75 206.15625L29.75 207.20312ZM22.375 200.20312L21.15625 200.20312L21.15625 199.14062L22.375 199.14062L22.375 200.20312ZM29.75 200.20312L23.53125 200.20312L23.53125 199.14062L29.75 199.14062L29.75 200.20312ZM29.75 197.20312L23.53125 197.20312L23.53125 196.26562L24.40625 196.26562Q23.390625 195.57812 23.390625 194.28125Q23.390625 193.71875 23.59375 193.25Q23.796875 192.76562 24.125 192.53125Q24.453125 192.29688 24.890625 192.20312Q25.1875 192.15625 25.921875 192.15625L29.75 192.15625L29.75 193.20312L25.96875 193.20312Q25.3125 193.20312 25.0 193.32812Q24.6875 193.45312 24.5 193.76562Q24.296875 194.07812 24.296875 194.5Q24.296875 195.17188 24.734375 195.67188Q25.15625 196.15625 26.34375 196.15625L29.75 196.15625L29.75 197.20312ZM30.265625 190.40625L30.421875 189.375Q30.890625 189.3125 31.109375 189.01562Q31.40625 188.625 31.40625 187.95312Q31.40625 187.21875 31.109375 186.82812Q30.8125 186.42188 30.296875 186.28125Q29.96875 186.1875 28.9375 186.20312Q29.75 186.89062 29.75 187.92188Q29.75 189.20312 28.828125 189.90625Q27.890625 190.60938 26.609375 190.60938Q25.71875 190.60938 24.96875 190.29688Q24.203125 189.96875 23.796875 189.35938Q23.390625 188.75 23.390625 187.92188Q23.390625 186.8125 24.28125 186.09375L23.53125 186.09375L23.53125 185.125L28.90625 185.125Q30.359375 185.125 30.96875 185.42188Q31.578125 185.71875 31.921875 186.35938Q32.28125 187.0 32.28125 187.9375Q32.28125 189.04688 31.78125 189.73438Q31.28125 190.42188 30.265625 190.40625ZM26.53125 189.53125Q27.75 189.53125 28.3125 189.04688Q28.875 188.5625 28.875 187.82812Q28.875 187.09375 28.3125 186.60938Q27.75 186.10938 26.5625 186.10938Q25.421875 186.10938 24.84375 186.625Q24.265625 187.125 24.265625 187.84375Q24.265625 188.54688 24.84375 189.04688Q25.40625 189.53125 26.53125 189.53125ZM29.75 180.03125L21.15625 180.03125L21.15625 178.90625L24.6875 178.90625L24.6875 174.4375L21.15625 174.4375L21.15625 173.29688L29.75 173.29688L29.75 174.4375L25.703125 174.4375L25.703125 178.90625L29.75 178.90625L29.75 180.03125ZM29.75 171.21875L23.53125 171.21875L23.53125 170.26562L24.46875 170.26562Q23.8125 169.90625 23.609375 169.60938Q23.390625 169.29688 23.390625 168.92188Q23.390625 168.39062 23.71875 167.84375L24.703125 168.20312Q24.46875 168.59375 24.46875 168.96875Q24.46875 169.32812 24.6875 169.60938Q24.890625 169.875 25.265625 169.98438Q25.828125 170.17188 26.484375 170.17188L29.75 170.17188L29.75 171.21875ZM27.890625 167.625L27.734375 166.59375Q28.359375 166.5 28.6875 166.10938Q29.015625 165.70312 29.015625 164.96875Q29.015625 164.25 28.734375 163.90625Q28.4375 163.54688 28.03125 163.54688Q27.671875 163.54688 27.46875 163.85938Q27.328125 164.07812 27.109375 164.9375Q26.8125 166.09375 26.609375 166.54688Q26.390625 166.98438 26.015625 167.21875Q25.640625 167.45312 25.171875 167.45312Q24.765625 167.45312 24.40625 167.26562Q24.046875 167.07812 23.8125 166.75Q23.640625 166.5 23.515625 166.07812Q23.390625 165.65625 23.390625 165.15625Q23.390625 164.4375 23.609375 163.89062Q23.8125 163.32812 24.171875 163.0625Q24.53125 162.79688 25.125 162.70312L25.265625 163.73438Q24.796875 163.79688 24.53125 164.14062Q24.25 164.46875 24.25 165.09375Q24.25 165.8125 24.5 166.125Q24.734375 166.4375 25.0625 166.4375Q25.265625 166.4375 25.421875 166.3125Q25.59375 166.17188 25.703125 165.90625Q25.765625 165.75 25.96875 164.96875Q26.28125 163.84375 26.46875 163.40625Q26.65625 162.96875 27.015625 162.71875Q27.375 162.46875 27.921875 162.46875Q28.453125 162.46875 28.921875 162.78125Q29.375 163.07812 29.640625 163.65625Q29.890625 164.23438 29.890625 164.96875Q29.890625 166.1875 29.390625 166.82812Q28.875 167.45312 27.890625 167.625Z" fill-rule="nonzero"/><path fill="#000000" d="M65.25 304.01562Q65.25 302.48438 65.5625 301.5625Q65.875 300.625 66.484375 300.125Q67.109375 299.625 68.046875 299.625Q68.734375 299.625 69.25 299.90625Q69.78125 300.1875 70.125 300.71875Q70.46875 301.23438 70.65625 301.98438Q70.84375 302.73438 70.84375 304.01562Q70.84375 305.53125 70.53125 306.45312Q70.234375 307.375 69.609375 307.89062Q69.0 308.39062 68.046875 308.39062Q66.8125 308.39062 66.09375 307.5Q65.25 306.4375 65.25 304.01562ZM66.328125 304.01562Q66.328125 306.125 66.828125 306.82812Q67.328125 307.53125 68.046875 307.53125Q68.78125 307.53125 69.265625 306.82812Q69.765625 306.125 69.765625 304.01562Q69.765625 301.89062 69.265625 301.20312Q68.78125 300.5 68.03125 300.5Q67.3125 300.5 66.875 301.10938Q66.328125 301.89062 66.328125 304.01562Z" fill-rule="nonzero"/><path fill="#000000" d="M61.625 257.54413L61.625 255.48163L57.90625 255.48163L57.90625 254.51288L61.828125 248.95038L62.6875 248.95038L62.6875 254.51288L63.84375 254.51288L63.84375 255.48163L62.6875 255.48163L62.6875 257.54413L61.625 257.54413ZM61.625 254.51288L61.625 250.6535L58.9375 254.51288L61.625 254.51288ZM65.25 253.30975Q65.25 251.7785 65.5625 250.85663Q65.875 249.91913 66.484375 249.41913Q67.109375 248.91913 68.046875 248.91913Q68.734375 248.91913 69.25 249.20038Q69.78125 249.48163 70.125 250.01288Q70.46875 250.5285 70.65625 251.2785Q70.84375 252.0285 70.84375 253.30975Q70.84375 254.82538 70.53125 255.74725Q70.234375 256.66913 69.609375 257.18475Q69.0 257.68475 68.046875 257.68475Q66.8125 257.68475 66.09375 256.79413Q65.25 255.73163 65.25 253.30975ZM66.328125 253.30975Q66.328125 255.41913 66.828125 256.12225Q67.328125 256.82538 68.046875 256.82538Q68.78125 256.82538 69.265625 256.12225Q69.765625 255.41913 69.765625 253.30975Q69.765625 251.18475 69.265625 250.49725Q68.78125 249.79413 68.03125 249.79413Q67.3125 249.79413 66.875 250.4035Q66.328125 251.18475 66.328125 253.30975Z" fill-rule="nonzero"/><path fill="#000000" d="M59.875 202.18199Q59.21875 201.93199 58.890625 201.49449Q58.578125 201.04137 58.578125 200.43199Q58.578125 199.49449 59.25 198.85387Q59.9375 198.21324 61.046875 198.21324Q62.171875 198.21324 62.859375 198.86949Q63.546875 199.52574 63.546875 200.46324Q63.546875 201.05699 63.234375 201.49449Q62.921875 201.93199 62.28125 202.18199Q63.078125 202.43199 63.484375 203.01012Q63.890625 203.58824 63.890625 204.38512Q63.890625 205.47887 63.109375 206.22887Q62.34375 206.97887 61.0625 206.97887Q59.796875 206.97887 59.015625 206.22887Q58.234375 205.47887 58.234375 204.35387Q58.234375 203.51012 58.65625 202.94762Q59.09375 202.38512 59.875 202.18199ZM59.65625 200.38512Q59.65625 200.99449 60.046875 201.38512Q60.453125 201.77574 61.078125 201.77574Q61.6875 201.77574 62.078125 201.40074Q62.46875 201.01012 62.46875 200.44762Q62.46875 199.86949 62.0625 199.47887Q61.65625 199.07262 61.0625 199.07262Q60.453125 199.07262 60.046875 199.46324Q59.65625 199.85387 59.65625 200.38512ZM59.328125 204.35387Q59.328125 204.80699 59.53125 205.22887Q59.75 205.65074 60.171875 205.88512Q60.59375 206.11949 61.078125 206.11949Q61.828125 206.11949 62.3125 205.63512Q62.8125 205.15074 62.8125 204.40074Q62.8125 203.63512 62.3125 203.13512Q61.8125 202.63512 61.046875 202.63512Q60.296875 202.63512 59.8125 203.13512Q59.328125 203.61949 59.328125 204.35387ZM65.25 202.60387Q65.25 201.07262 65.5625 200.15074Q65.875 199.21324 66.484375 198.71324Q67.109375 198.21324 68.046875 198.21324Q68.734375 198.21324 69.25 198.49449Q69.78125 198.77574 70.125 199.30699Q70.46875 199.82262 70.65625 200.57262Q70.84375 201.32262 70.84375 202.60387Q70.84375 204.11949 70.53125 205.04137Q70.234375 205.96324 69.609375 206.47887Q69.0 206.97887 68.046875 206.97887Q66.8125 206.97887 66.09375 206.08824Q65.25 205.02574 65.25 202.60387ZM66.328125 202.60387Q66.328125 204.71324 66.828125 205.41637Q67.328125 206.11949 68.046875 206.11949Q68.78125 206.11949 69.265625 205.41637Q69.765625 204.71324 69.765625 202.60387Q69.765625 200.47887 69.265625 199.79137Q68.78125 199.08824 68.03125 199.08824Q67.3125 199.08824 66.875 199.69762Q66.328125 200.47887 66.328125 202.60387Z" fill-rule="nonzero"/><path fill="#000000" d="M55.21875 156.13235L54.171875 156.13235L54.171875 149.4136Q53.78125 149.77298 53.15625 150.14798Q52.546875 150.50735 52.0625 150.67923L52.0625 149.6636Q52.9375 149.24173 53.59375 148.6636Q54.265625 148.06985 54.546875 147.50735L55.21875 147.50735L55.21875 156.13235ZM63.796875 155.11673L63.796875 156.13235L58.109375 156.13235Q58.109375 155.75735 58.234375 155.39798Q58.453125 154.81985 58.921875 154.25735Q59.40625 153.69485 60.3125 152.96048Q61.71875 151.80423 62.203125 151.13235Q62.703125 150.46048 62.703125 149.86673Q62.703125 149.24173 62.25 148.81985Q61.796875 148.38235 61.078125 148.38235Q60.3125 148.38235 59.859375 148.83548Q59.40625 149.2886 59.390625 150.1011L58.3125 149.99173Q58.421875 148.77298 59.140625 148.14798Q59.875 147.50735 61.109375 147.50735Q62.34375 147.50735 63.0625 148.19485Q63.78125 148.88235 63.78125 149.89798Q63.78125 150.4136 63.5625 150.9136Q63.359375 151.39798 62.859375 151.96048Q62.375 152.50735 61.25 153.46048Q60.296875 154.25735 60.015625 154.55423Q59.75 154.83548 59.578125 155.11673L63.796875 155.11673ZM65.25 151.89798Q65.25 150.36673 65.5625 149.44485Q65.875 148.50735 66.484375 148.00735Q67.109375 147.50735 68.046875 147.50735Q68.734375 147.50735 69.25 147.7886Q69.78125 148.06985 70.125 148.6011Q70.46875 149.11673 70.65625 149.86673Q70.84375 150.61673 70.84375 151.89798Q70.84375 153.4136 70.53125 154.33548Q70.234375 155.25735 69.609375 155.77298Q69.0 156.27298 68.046875 156.27298Q66.8125 156.27298 66.09375 155.38235Q65.25 154.31985 65.25 151.89798ZM66.328125 151.89798Q66.328125 154.00735 66.828125 154.71048Q67.328125 155.4136 68.046875 155.4136Q68.78125 155.4136 69.265625 154.71048Q69.765625 154.00735 69.765625 151.89798Q69.765625 149.77298 69.265625 149.08548Q68.78125 148.38235 68.03125 148.38235Q67.3125 148.38235 66.875 148.99173Q66.328125 149.77298 66.328125 151.89798Z" fill-rule="nonzero"/><path fill="#000000" d="M55.21875 105.42647L54.171875 105.42647L54.171875 98.70772Q53.78125 99.06709 53.15625 99.44209Q52.546875 99.80147 52.0625 99.97334L52.0625 98.95772Q52.9375 98.53584 53.59375 97.95772Q54.265625 97.36397 54.546875 96.80147L55.21875 96.80147L55.21875 105.42647ZM63.71875 98.94209L62.671875 99.02022Q62.53125 98.39522 62.28125 98.11397Q61.84375 97.66084 61.21875 97.66084Q60.71875 97.66084 60.328125 97.94209Q59.84375 98.31709 59.546875 99.02022Q59.265625 99.70772 59.25 100.98897Q59.625 100.41084 60.171875 100.12959Q60.734375 99.84834 61.34375 99.84834Q62.390625 99.84834 63.125 100.62959Q63.875 101.41084 63.875 102.62959Q63.875 103.44209 63.515625 104.14522Q63.171875 104.83272 62.5625 105.20772Q61.953125 105.56709 61.1875 105.56709Q59.859375 105.56709 59.03125 104.59834Q58.203125 103.62959 58.203125 101.41084Q58.203125 98.91084 59.125 97.78584Q59.921875 96.80147 61.28125 96.80147Q62.296875 96.80147 62.9375 97.37959Q63.59375 97.94209 63.71875 98.94209ZM59.421875 102.64522Q59.421875 103.19209 59.640625 103.69209Q59.875 104.17647 60.28125 104.44209Q60.703125 104.70772 61.171875 104.70772Q61.828125 104.70772 62.3125 104.17647Q62.796875 103.62959 62.796875 102.70772Q62.796875 101.81709 62.3125 101.30147Q61.84375 100.78584 61.125 100.78584Q60.40625 100.78584 59.90625 101.30147Q59.421875 101.81709 59.421875 102.64522ZM65.25 101.19209Q65.25 99.66084 65.5625 98.73897Q65.875 97.80147 66.484375 97.30147Q67.109375 96.80147 68.046875 96.80147Q68.734375 96.80147 69.25 97.08272Q69.78125 97.36397 70.125 97.89522Q70.46875 98.41084 70.65625 99.16084Q70.84375 99.91084 70.84375 101.19209Q70.84375 102.70772 70.53125 103.62959Q70.234375 104.55147 69.609375 105.06709Q69.0 105.56709 68.046875 105.56709Q66.8125 105.56709 66.09375 104.67647Q65.25 103.61397 65.25 101.19209ZM66.328125 101.19209Q66.328125 103.30147 66.828125 104.00459Q67.328125 104.70772 68.046875 104.70772Q68.78125 104.70772 69.265625 104.00459Q69.765625 103.30147 69.765625 101.19209Q69.765625 99.06709 69.265625 98.37959Q68.78125 97.67647 68.03125 97.67647Q67.3125 97.67647 66.875 98.28584Q66.328125 99.06709 66.328125 101.19209Z" fill-rule="nonzero"/><path fill="#000000" d="M69.625 321.25L69.625 319.1875L65.90625 319.1875L65.90625 318.21875L69.828125 312.65625L70.6875 312.65625L70.6875 318.21875L71.84375 318.21875L71.84375 319.1875L70.6875 319.1875L70.6875 321.25L69.625 321.25ZM69.625 318.21875L69.625 314.35938L66.9375 318.21875L69.625 318.21875ZM72.75 321.39062L75.234375 312.51562L76.078125 312.51562L73.59375 321.39062L72.75 321.39062ZM80.21875 321.25L79.171875 321.25L79.171875 314.53125Q78.78125 314.89062 78.15625 315.26562Q77.546875 315.625 77.0625 315.79688L77.0625 314.78125Q77.9375 314.35938 78.59375 313.78125Q79.265625 313.1875 79.546875 312.625L80.21875 312.625L80.21875 321.25ZM87.21875 321.25L86.171875 321.25L86.171875 314.53125Q85.78125 314.89062 85.15625 315.26562Q84.546875 315.625 84.0625 315.79688L84.0625 314.78125Q84.9375 314.35938 85.59375 313.78125Q86.265625 313.1875 86.546875 312.625L87.21875 312.625L87.21875 321.25Z" fill-rule="nonzero"/><path fill="#000000" d="M114.84722 321.25L114.84722 319.1875L111.12847 319.1875L111.12847 318.21875L115.05035 312.65625L115.90972 312.65625L115.90972 318.21875L117.06597 318.21875L117.06597 319.1875L115.90972 319.1875L115.90972 321.25L114.84722 321.25ZM114.84722 318.21875L114.84722 314.35938L112.15972 318.21875L114.84722 318.21875ZM117.97222 321.39062L120.4566 312.51562L121.30035 312.51562L118.81597 321.39062L117.97222 321.39062ZM125.44097 321.25L124.3941 321.25L124.3941 314.53125Q124.00347 314.89062 123.37847 315.26562Q122.7691 315.625 122.28472 315.79688L122.28472 314.78125Q123.15972 314.35938 123.81597 313.78125Q124.48785 313.1875 124.7691 312.625L125.44097 312.625L125.44097 321.25ZM128.47223 318.98438L129.53473 318.84375Q129.7066 319.73438 130.1441 320.14062Q130.5816 320.53125 131.2066 320.53125Q131.9566 320.53125 132.47223 320.01562Q132.98785 319.5 132.98785 318.73438Q132.98785 318.01562 132.50348 317.54688Q132.03473 317.0625 131.30035 317.0625Q131.00348 317.0625 130.55035 317.1875L130.67535 316.25Q130.78473 316.26562 130.84723 316.26562Q131.5191 316.26562 132.05035 315.92188Q132.59723 315.5625 132.59723 314.82812Q132.59723 314.25 132.2066 313.875Q131.81598 313.48438 131.19098 313.48438Q130.5816 313.48438 130.15973 313.875Q129.75348 314.26562 129.6441 315.03125L128.5816 314.84375Q128.7691 313.79688 129.4566 313.21875Q130.1441 312.625 131.15973 312.625Q131.86285 312.625 132.4566 312.9375Q133.05035 313.23438 133.36285 313.75Q133.67535 314.26562 133.67535 314.85938Q133.67535 315.40625 133.37848 315.875Q133.0816 316.32812 132.50348 316.59375Q133.25348 316.76562 133.67535 317.32812Q134.09723 317.875 134.09723 318.71875Q134.09723 319.84375 133.2691 320.625Q132.4566 321.40625 131.2066 321.40625Q130.0816 321.40625 129.3316 320.73438Q128.5816 320.04688 128.47223 318.98438Z" fill-rule="nonzero"/><path fill="#000000" d="M160.06944 321.25L160.06944 319.1875L156.3507 319.1875L156.3507 318.21875L160.27257 312.65625L161.13194 312.65625L161.13194 318.21875L162.2882 318.21875L162.2882 319.1875L161.13194 319.1875L161.13194 321.25L160.06944 321.25ZM160.06944 318.21875L160.06944 314.35938L157.38194 318.21875L160.06944 318.21875ZM163.19444 321.39062L165.67882 312.51562L166.52257 312.51562L164.0382 321.39062L163.19444 321.39062ZM170.6632 321.25L169.61632 321.25L169.61632 314.53125Q169.2257 314.89062 168.6007 315.26562Q167.99132 315.625 167.50694 315.79688L167.50694 314.78125Q168.38194 314.35938 169.0382 313.78125Q169.71007 313.1875 169.99132 312.625L170.6632 312.625L170.6632 321.25ZM173.69444 319.0L174.80382 318.90625Q174.92882 319.71875 175.36632 320.125Q175.81944 320.53125 176.46007 320.53125Q177.21007 320.53125 177.74132 319.95312Q178.27257 319.375 178.27257 318.4375Q178.27257 317.53125 177.75694 317.01562Q177.25694 316.48438 176.42882 316.48438Q175.92882 316.48438 175.50694 316.71875Q175.1007 316.95312 174.86632 317.3125L173.88194 317.1875L174.71007 312.78125L178.99132 312.78125L178.99132 313.78125L175.55382 313.78125L175.1007 316.09375Q175.86632 315.54688 176.71007 315.54688Q177.83507 315.54688 178.6007 316.32812Q179.38194 317.10938 179.38194 318.34375Q179.38194 319.5 178.71007 320.35938Q177.88194 321.39062 176.46007 321.39062Q175.2882 321.39062 174.5382 320.73438Q173.80382 320.07812 173.69444 319.0Z" fill-rule="nonzero"/><path fill="#000000" d="M205.29167 321.25L205.29167 319.1875L201.57292 319.1875L201.57292 318.21875L205.4948 312.65625L206.35417 312.65625L206.35417 318.21875L207.51042 318.21875L207.51042 319.1875L206.35417 319.1875L206.35417 321.25L205.29167 321.25ZM205.29167 318.21875L205.29167 314.35938L202.60417 318.21875L205.29167 318.21875ZM208.41667 321.39062L210.90105 312.51562L211.7448 312.51562L209.26042 321.39062L208.41667 321.39062ZM215.88542 321.25L214.83855 321.25L214.83855 314.53125Q214.44792 314.89062 213.82292 315.26562Q213.21355 315.625 212.72917 315.79688L212.72917 314.78125Q213.60417 314.35938 214.26042 313.78125Q214.9323 313.1875 215.21355 312.625L215.88542 312.625L215.88542 321.25ZM218.97917 313.78125L218.97917 312.76562L224.54167 312.76562L224.54167 313.59375Q223.72917 314.46875 222.91667 315.92188Q222.1198 317.35938 221.6823 318.89062Q221.35417 319.96875 221.27605 321.25L220.1823 321.25Q220.19792 320.23438 220.57292 318.79688Q220.96355 317.35938 221.66667 316.03125Q222.38542 314.70312 223.19792 313.78125L218.97917 313.78125Z" fill-rule="nonzero"/><path fill="#000000" d="M250.51389 321.25L250.51389 319.1875L246.79514 319.1875L246.79514 318.21875L250.71701 312.65625L251.57639 312.65625L251.57639 318.21875L252.73264 318.21875L252.73264 319.1875L251.57639 319.1875L251.57639 321.25L250.51389 321.25ZM250.51389 318.21875L250.51389 314.35938L247.82639 318.21875L250.51389 318.21875ZM253.63889 321.39062L256.12326 312.51562L256.967 312.51562L254.48264 321.39062L253.63889 321.39062ZM261.10764 321.25L260.06076 321.25L260.06076 314.53125Q259.67014 314.89062 259.04514 315.26562Q258.43576 315.625 257.9514 315.79688L257.9514 314.78125Q258.8264 314.35938 259.48264 313.78125Q260.1545 313.1875 260.43576 312.625L261.10764 312.625L261.10764 321.25ZM264.29514 319.26562L265.31076 319.17188Q265.43576 319.89062 265.79514 320.21875Q266.17014 320.53125 266.73264 320.53125Q267.217 320.53125 267.5764 320.3125Q267.9514 320.07812 268.18576 319.71875Q268.42014 319.34375 268.5764 318.71875Q268.73264 318.07812 268.73264 317.42188Q268.73264 317.34375 268.73264 317.20312Q268.42014 317.70312 267.87326 318.03125Q267.3264 318.34375 266.68576 318.34375Q265.60764 318.34375 264.87326 317.57812Q264.1389 316.79688 264.1389 315.53125Q264.1389 314.21875 264.9045 313.42188Q265.68576 312.625 266.842 312.625Q267.67014 312.625 268.35764 313.07812Q269.06076 313.53125 269.42014 314.375Q269.7795 315.20312 269.7795 316.78125Q269.7795 318.42188 269.42014 319.40625Q269.0764 320.375 268.35764 320.89062Q267.6545 321.39062 266.717 321.39062Q265.7014 321.39062 265.06076 320.84375Q264.42014 320.28125 264.29514 319.26562ZM268.60764 315.46875Q268.60764 314.5625 268.12326 314.03125Q267.6545 313.5 266.967 313.5Q266.2639 313.5 265.73264 314.07812Q265.217 314.64062 265.217 315.5625Q265.217 316.375 265.717 316.89062Q266.217 317.40625 266.93576 317.40625Q267.67014 317.40625 268.1389 316.89062Q268.60764 316.375 268.60764 315.46875Z" fill-rule="nonzero"/><path fill="#000000" d="M295.7361 321.25L295.7361 319.1875L292.01736 319.1875L292.01736 318.21875L295.93924 312.65625L296.7986 312.65625L296.7986 318.21875L297.95486 318.21875L297.95486 319.1875L296.7986 319.1875L296.7986 321.25L295.7361 321.25ZM295.7361 318.21875L295.7361 314.35938L293.0486 318.21875L295.7361 318.21875ZM298.8611 321.39062L301.3455 312.51562L302.18924 312.51562L299.70486 321.39062L298.8611 321.39062ZM307.908 320.23438L307.908 321.25L302.2205 321.25Q302.2205 320.875 302.3455 320.51562Q302.56424 319.9375 303.033 319.375Q303.51736 318.8125 304.4236 318.07812Q305.82986 316.92188 306.31424 316.25Q306.81424 315.57812 306.81424 314.98438Q306.81424 314.35938 306.3611 313.9375Q305.908 313.5 305.18924 313.5Q304.4236 313.5 303.9705 313.95312Q303.51736 314.40625 303.50174 315.21875L302.4236 315.10938Q302.533 313.89062 303.25174 313.26562Q303.9861 312.625 305.2205 312.625Q306.45486 312.625 307.1736 313.3125Q307.89236 314.0 307.89236 315.01562Q307.89236 315.53125 307.6736 316.03125Q307.4705 316.51562 306.9705 317.07812Q306.4861 317.625 305.3611 318.57812Q304.408 319.375 304.12674 319.67188Q303.8611 319.95312 303.68924 320.23438L307.908 320.23438ZM313.32986 321.25L312.283 321.25L312.283 314.53125Q311.89236 314.89062 311.26736 315.26562Q310.658 315.625 310.1736 315.79688L310.1736 314.78125Q311.0486 314.35938 311.70486 313.78125Q312.37674 313.1875 312.658 312.625L313.32986 312.625L313.32986 321.25Z" fill-rule="nonzero"/><path fill="#000000" d="M340.95834 321.25L340.95834 319.1875L337.2396 319.1875L337.2396 318.21875L341.16147 312.65625L342.02084 312.65625L342.02084 318.21875L343.1771 318.21875L343.1771 319.1875L342.02084 319.1875L342.02084 321.25L340.95834 321.25ZM340.95834 318.21875L340.95834 314.35938L338.27084 318.21875L340.95834 318.21875ZM344.08334 321.39062L346.56772 312.51562L347.41147 312.51562L344.9271 321.39062L344.08334 321.39062ZM353.13022 320.23438L353.13022 321.25L347.44272 321.25Q347.44272 320.875 347.56772 320.51562Q347.78647 319.9375 348.25522 319.375Q348.7396 318.8125 349.64584 318.07812Q351.0521 316.92188 351.53647 316.25Q352.03647 315.57812 352.03647 314.98438Q352.03647 314.35938 351.58334 313.9375Q351.13022 313.5 350.41147 313.5Q349.64584 313.5 349.19272 313.95312Q348.7396 314.40625 348.72397 315.21875L347.64584 315.10938Q347.75522 313.89062 348.47397 313.26562Q349.20834 312.625 350.44272 312.625Q351.6771 312.625 352.39584 313.3125Q353.1146 314.0 353.1146 315.01562Q353.1146 315.53125 352.89584 316.03125Q352.69272 316.51562 352.19272 317.07812Q351.70834 317.625 350.58334 318.57812Q349.63022 319.375 349.34897 319.67188Q349.08334 319.95312 348.91147 320.23438L353.13022 320.23438ZM354.58334 318.98438L355.64584 318.84375Q355.81772 319.73438 356.25522 320.14062Q356.69272 320.53125 357.31772 320.53125Q358.06772 320.53125 358.58334 320.01562Q359.09897 319.5 359.09897 318.73438Q359.09897 318.01562 358.6146 317.54688Q358.14584 317.0625 357.41147 317.0625Q357.1146 317.0625 356.66147 317.1875L356.78647 316.25Q356.89584 316.26562 356.95834 316.26562Q357.63022 316.26562 358.16147 315.92188Q358.70834 315.5625 358.70834 314.82812Q358.70834 314.25 358.31772 313.875Q357.9271 313.48438 357.3021 313.48438Q356.69272 313.48438 356.27084 313.875Q355.8646 314.26562 355.75522 315.03125L354.69272 314.84375Q354.88022 313.79688 355.56772 313.21875Q356.25522 312.625 357.27084 312.625Q357.97397 312.625 358.56772 312.9375Q359.16147 313.23438 359.47397 313.75Q359.78647 314.26562 359.78647 314.85938Q359.78647 315.40625 359.4896 315.875Q359.19272 316.32812 358.6146 316.59375Q359.3646 316.76562 359.78647 317.32812Q360.20834 317.875 360.20834 318.71875Q360.20834 319.84375 359.38022 320.625Q358.56772 321.40625 357.31772 321.40625Q356.19272 321.40625 355.44272 320.73438Q354.69272 320.04688 354.58334 318.98438Z" fill-rule="nonzero"/><path fill="#000000" d="M386.18054 321.25L386.18054 319.1875L382.4618 319.1875L382.4618 318.21875L386.38367 312.65625L387.24304 312.65625L387.24304 318.21875L388.3993 318.21875L388.3993 319.1875L387.24304 319.1875L387.24304 321.25L386.18054 321.25ZM386.18054 318.21875L386.18054 314.35938L383.49304 318.21875L386.18054 318.21875ZM389.30554 321.39062L391.78992 312.51562L392.63367 312.51562L390.1493 321.39062L389.30554 321.39062ZM398.35242 320.23438L398.35242 321.25L392.66492 321.25Q392.66492 320.875 392.78992 320.51562Q393.00867 319.9375 393.47742 319.375Q393.9618 318.8125 394.86804 318.07812Q396.2743 316.92188 396.75867 316.25Q397.25867 315.57812 397.25867 314.98438Q397.25867 314.35938 396.80554 313.9375Q396.35242 313.5 395.63367 313.5Q394.86804 313.5 394.41492 313.95312Q393.9618 314.40625 393.94617 315.21875L392.86804 315.10938Q392.97742 313.89062 393.69617 313.26562Q394.43054 312.625 395.66492 312.625Q396.8993 312.625 397.61804 313.3125Q398.3368 314.0 398.3368 315.01562Q398.3368 315.53125 398.11804 316.03125Q397.91492 316.51562 397.41492 317.07812Q396.93054 317.625 395.80554 318.57812Q394.85242 319.375 394.57117 319.67188Q394.30554 319.95312 394.13367 320.23438L398.35242 320.23438ZM399.80554 319.0L400.91492 318.90625Q401.03992 319.71875 401.47742 320.125Q401.93054 320.53125 402.57117 320.53125Q403.32117 320.53125 403.85242 319.95312Q404.38367 319.375 404.38367 318.4375Q404.38367 317.53125 403.86804 317.01562Q403.36804 316.48438 402.53992 316.48438Q402.03992 316.48438 401.61804 316.71875Q401.2118 316.95312 400.97742 317.3125L399.99304 317.1875L400.82117 312.78125L405.10242 312.78125L405.10242 313.78125L401.66492 313.78125L401.2118 316.09375Q401.97742 315.54688 402.82117 315.54688Q403.94617 315.54688 404.7118 316.32812Q405.49304 317.10938 405.49304 318.34375Q405.49304 319.5 404.82117 320.35938Q403.99304 321.39062 402.57117 321.39062Q401.3993 321.39062 400.6493 320.73438Q399.91492 320.07812 399.80554 319.0Z" fill-rule="nonzero"/><path fill="#000000" d="M431.40277 321.25L431.40277 319.1875L427.68402 319.1875L427.68402 318.21875L431.6059 312.65625L432.46527 312.65625L432.46527 318.21875L433.62152 318.21875L433.62152 319.1875L432.46527 319.1875L432.46527 321.25L431.40277 321.25ZM431.40277 318.21875L431.40277 314.35938L428.71527 318.21875L431.40277 318.21875ZM434.52777 321.39062L437.01215 312.51562L437.8559 312.51562L435.37152 321.39062L434.52777 321.39062ZM443.57465 320.23438L443.57465 321.25L437.88715 321.25Q437.88715 320.875 438.01215 320.51562Q438.2309 319.9375 438.69965 319.375Q439.18402 318.8125 440.09027 318.07812Q441.49652 316.92188 441.9809 316.25Q442.4809 315.57812 442.4809 314.98438Q442.4809 314.35938 442.02777 313.9375Q441.57465 313.5 440.8559 313.5Q440.09027 313.5 439.63715 313.95312Q439.18402 314.40625 439.1684 315.21875L438.09027 315.10938Q438.19965 313.89062 438.9184 313.26562Q439.65277 312.625 440.88715 312.625Q442.12152 312.625 442.84027 313.3125Q443.55902 314.0 443.55902 315.01562Q443.55902 315.53125 443.34027 316.03125Q443.13715 316.51562 442.63715 317.07812Q442.15277 317.625 441.02777 318.57812Q440.07465 319.375 439.7934 319.67188Q439.52777 319.95312 439.3559 320.23438L443.57465 320.23438ZM445.09027 313.78125L445.09027 312.76562L450.65277 312.76562L450.65277 313.59375Q449.84027 314.46875 449.02777 315.92188Q448.2309 317.35938 447.7934 318.89062Q447.46527 319.96875 447.38715 321.25L446.2934 321.25Q446.30902 320.23438 446.68402 318.79688Q447.07465 317.35938 447.77777 316.03125Q448.49652 314.70312 449.30902 313.78125L445.09027 313.78125Z" fill-rule="nonzero"/><path fill="#000000" d="M476.625 321.25L476.625 319.1875L472.90625 319.1875L472.90625 318.21875L476.82812 312.65625L477.6875 312.65625L477.6875 318.21875L478.84375 318.21875L478.84375 319.1875L477.6875 319.1875L477.6875 321.25L476.625 321.25ZM476.625 318.21875L476.625 314.35938L473.9375 318.21875L476.625 318.21875ZM479.75 321.39062L482.23438 312.51562L483.07812 312.51562L480.59375 321.39062L479.75 321.39062ZM488.79688 320.23438L488.79688 321.25L483.10938 321.25Q483.10938 320.875 483.23438 320.51562Q483.45312 319.9375 483.92188 319.375Q484.40625 318.8125 485.3125 318.07812Q486.71875 316.92188 487.20312 316.25Q487.70312 315.57812 487.70312 314.98438Q487.70312 314.35938 487.25 313.9375Q486.79688 313.5 486.07812 313.5Q485.3125 313.5 484.85938 313.95312Q484.40625 314.40625 484.39062 315.21875L483.3125 315.10938Q483.42188 313.89062 484.14062 313.26562Q484.875 312.625 486.10938 312.625Q487.34375 312.625 488.0625 313.3125Q488.78125 314.0 488.78125 315.01562Q488.78125 315.53125 488.5625 316.03125Q488.35938 316.51562 487.85938 317.07812Q487.375 317.625 486.25 318.57812Q485.29688 319.375 485.01562 319.67188Q484.75 319.95312 484.57812 320.23438L488.79688 320.23438ZM490.40625 319.26562L491.42188 319.17188Q491.54688 319.89062 491.90625 320.21875Q492.28125 320.53125 492.84375 320.53125Q493.32812 320.53125 493.6875 320.3125Q494.0625 320.07812 494.29688 319.71875Q494.53125 319.34375 494.6875 318.71875Q494.84375 318.07812 494.84375 317.42188Q494.84375 317.34375 494.84375 317.20312Q494.53125 317.70312 493.98438 318.03125Q493.4375 318.34375 492.79688 318.34375Q491.71875 318.34375 490.98438 317.57812Q490.25 316.79688 490.25 315.53125Q490.25 314.21875 491.01562 313.42188Q491.79688 312.625 492.95312 312.625Q493.78125 312.625 494.46875 313.07812Q495.17188 313.53125 495.53125 314.375Q495.89062 315.20312 495.89062 316.78125Q495.89062 318.42188 495.53125 319.40625Q495.1875 320.375 494.46875 320.89062Q493.76562 321.39062 492.82812 321.39062Q491.8125 321.39062 491.17188 320.84375Q490.53125 320.28125 490.40625 319.26562ZM494.71875 315.46875Q494.71875 314.5625 494.23438 314.03125Q493.76562 313.5 493.07812 313.5Q492.375 313.5 491.84375 314.07812Q491.32812 314.64062 491.32812 315.5625Q491.32812 316.375 491.82812 316.89062Q492.32812 317.40625 493.04688 317.40625Q493.78125 317.40625 494.25 316.89062Q494.71875 316.375 494.71875 315.46875Z" fill-rule="nonzero"/><path fill="#000000" d="M521.9722 319.0L523.0816 318.90625Q523.2066 319.71875 523.6441 320.125Q524.0972 320.53125 524.73785 320.53125Q525.48785 320.53125 526.0191 319.95312Q526.55035 319.375 526.55035 318.4375Q526.55035 317.53125 526.0347 317.01562Q525.5347 316.48438 524.7066 316.48438Q524.2066 316.48438 523.7847 316.71875Q523.3785 316.95312 523.1441 317.3125L522.1597 317.1875L522.98785 312.78125L527.2691 312.78125L527.2691 313.78125L523.8316 313.78125L523.3785 316.09375Q524.1441 315.54688 524.98785 315.54688Q526.11285 315.54688 526.8785 316.32812Q527.6597 317.10938 527.6597 318.34375Q527.6597 319.5 526.98785 320.35938Q526.1597 321.39062 524.73785 321.39062Q523.566 321.39062 522.816 320.73438Q522.0816 320.07812 521.9722 319.0ZM528.4722 321.39062L530.9566 312.51562L531.80035 312.51562L529.316 321.39062L528.4722 321.39062ZM535.941 321.25L534.8941 321.25L534.8941 314.53125Q534.5035 314.89062 533.8785 315.26562Q533.2691 315.625 532.7847 315.79688L532.7847 314.78125Q533.6597 314.35938 534.316 313.78125Q534.98785 313.1875 535.2691 312.625L535.941 312.625L535.941 321.25Z" fill-rule="nonzero"/><path fill="#000000" d="M567.19446 319.0L568.30383 318.90625Q568.42883 319.71875 568.86633 320.125Q569.31946 320.53125 569.9601 320.53125Q570.7101 320.53125 571.24133 319.95312Q571.7726 319.375 571.7726 318.4375Q571.7726 317.53125 571.25696 317.01562Q570.75696 316.48438 569.92883 316.48438Q569.42883 316.48438 569.00696 316.71875Q568.6007 316.95312 568.36633 317.3125L567.38196 317.1875L568.2101 312.78125L572.49133 312.78125L572.49133 313.78125L569.05383 313.78125L568.6007 316.09375Q569.36633 315.54688 570.2101 315.54688Q571.3351 315.54688 572.1007 316.32812Q572.88196 317.10938 572.88196 318.34375Q572.88196 319.5 572.2101 320.35938Q571.38196 321.39062 569.9601 321.39062Q568.7882 321.39062 568.0382 320.73438Q567.30383 320.07812 567.19446 319.0ZM573.69446 321.39062L576.17883 312.51562L577.0226 312.51562L574.5382 321.39062L573.69446 321.39062ZM577.19446 318.98438L578.25696 318.84375Q578.42883 319.73438 578.86633 320.14062Q579.30383 320.53125 579.92883 320.53125Q580.67883 320.53125 581.19446 320.01562Q581.7101 319.5 581.7101 318.73438Q581.7101 318.01562 581.2257 317.54688Q580.75696 317.0625 580.0226 317.0625Q579.7257 317.0625 579.2726 317.1875L579.3976 316.25Q579.50696 316.26562 579.56946 316.26562Q580.24133 316.26562 580.7726 315.92188Q581.31946 315.5625 581.31946 314.82812Q581.31946 314.25 580.92883 313.875Q580.5382 313.48438 579.9132 313.48438Q579.30383 313.48438 578.88196 313.875Q578.4757 314.26562 578.36633 315.03125L577.30383 314.84375Q577.49133 313.79688 578.17883 313.21875Q578.86633 312.625 579.88196 312.625Q580.5851 312.625 581.17883 312.9375Q581.7726 313.23438 582.0851 313.75Q582.3976 314.26562 582.3976 314.85938Q582.3976 315.40625 582.1007 315.875Q581.80383 316.32812 581.2257 316.59375Q581.9757 316.76562 582.3976 317.32812Q582.81946 317.875 582.81946 318.71875Q582.81946 319.84375 581.99133 320.625Q581.17883 321.40625 579.92883 321.40625Q578.80383 321.40625 578.05383 320.73438Q577.30383 320.04688 577.19446 318.98438Z" fill-rule="nonzero"/><path fill="#000000" d="M612.4167 319.0L613.52606 318.90625Q613.65106 319.71875 614.08856 320.125Q614.5417 320.53125 615.1823 320.53125Q615.9323 320.53125 616.46356 319.95312Q616.9948 319.375 616.9948 318.4375Q616.9948 317.53125 616.4792 317.01562Q615.9792 316.48438 615.15106 316.48438Q614.65106 316.48438 614.2292 316.71875Q613.82294 316.95312 613.58856 317.3125L612.6042 317.1875L613.4323 312.78125L617.71356 312.78125L617.71356 313.78125L614.27606 313.78125L613.82294 316.09375Q614.58856 315.54688 615.4323 315.54688Q616.5573 315.54688 617.32294 316.32812Q618.1042 317.10938 618.1042 318.34375Q618.1042 319.5 617.4323 320.35938Q616.6042 321.39062 615.1823 321.39062Q614.01044 321.39062 613.26044 320.73438Q612.52606 320.07812 612.4167 319.0ZM618.9167 321.39062L621.40106 312.51562L622.2448 312.51562L619.76044 321.39062L618.9167 321.39062ZM622.4167 319.0L623.52606 318.90625Q623.65106 319.71875 624.08856 320.125Q624.5417 320.53125 625.1823 320.53125Q625.9323 320.53125 626.46356 319.95312Q626.9948 319.375 626.9948 318.4375Q626.9948 317.53125 626.4792 317.01562Q625.9792 316.48438 625.15106 316.48438Q624.65106 316.48438 624.2292 316.71875Q623.82294 316.95312 623.58856 317.3125L622.6042 317.1875L623.4323 312.78125L627.71356 312.78125L627.71356 313.78125L624.27606 313.78125L623.82294 316.09375Q624.58856 315.54688 625.4323 315.54688Q626.5573 315.54688 627.32294 316.32812Q628.1042 317.10938 628.1042 318.34375Q628.1042 319.5 627.4323 320.35938Q626.6042 321.39062 625.1823 321.39062Q624.01044 321.39062 623.26044 320.73438Q622.52606 320.07812 622.4167 319.0Z" fill-rule="nonzero"/><path fill="#000000" d="M657.6389 319.0L658.7483 318.90625Q658.8733 319.71875 659.3108 320.125Q659.7639 320.53125 660.40454 320.53125Q661.15454 320.53125 661.6858 319.95312Q662.21704 319.375 662.21704 318.4375Q662.21704 317.53125 661.7014 317.01562Q661.2014 316.48438 660.3733 316.48438Q659.8733 316.48438 659.4514 316.71875Q659.04517 316.95312 658.8108 317.3125L657.8264 317.1875L658.65454 312.78125L662.9358 312.78125L662.9358 313.78125L659.4983 313.78125L659.04517 316.09375Q659.8108 315.54688 660.65454 315.54688Q661.77954 315.54688 662.54517 316.32812Q663.3264 317.10938 663.3264 318.34375Q663.3264 319.5 662.65454 320.35938Q661.8264 321.39062 660.40454 321.39062Q659.23267 321.39062 658.48267 320.73438Q657.7483 320.07812 657.6389 319.0ZM664.1389 321.39062L666.6233 312.51562L667.46704 312.51562L664.98267 321.39062L664.1389 321.39062ZM667.7014 313.78125L667.7014 312.76562L673.2639 312.76562L673.2639 313.59375Q672.4514 314.46875 671.6389 315.92188Q670.84204 317.35938 670.40454 318.89062Q670.0764 319.96875 669.9983 321.25L668.90454 321.25Q668.92017 320.23438 669.29517 318.79688Q669.6858 317.35938 670.3889 316.03125Q671.10767 314.70312 671.92017 313.78125L667.7014 313.78125Z" fill-rule="nonzero"/><path stroke="#4285f4" stroke-width="4.0" stroke-linecap="butt" stroke-dasharray="13.0,9.0" d="M256.5 62.25L291.5 62.25" fill-rule="nonzero"/><path fill="#1a1a1a" d="M300.625 66.25L300.625 57.65625L301.75 57.65625L301.75 66.25L300.625 66.25ZM307.32812 66.25L307.32812 65.46875Q306.73438 66.390625 305.59375 66.390625Q304.84375 66.390625 304.21875 65.984375Q303.59375 65.5625 303.25 64.828125Q302.90625 64.09375 302.90625 63.140625Q302.90625 62.21875 303.21875 61.453125Q303.53125 60.6875 304.15625 60.296875Q304.78125 59.890625 305.54688 59.890625Q306.10938 59.890625 306.54688 60.125Q306.98438 60.359375 307.26562 60.734375L307.26562 57.65625L308.3125 57.65625L308.3125 66.25L307.32812 66.25ZM304.0 63.140625Q304.0 64.34375 304.5 64.9375Q305.0 65.515625 305.6875 65.515625Q306.375 65.515625 306.85938 64.953125Q307.34375 64.390625 307.34375 63.234375Q307.34375 61.953125 306.84375 61.359375Q306.35938 60.765625 305.64062 60.765625Q304.9375 60.765625 304.46875 61.34375Q304.0 61.90625 304.0 63.140625ZM314.54688 64.25L315.64062 64.375Q315.39062 65.328125 314.6875 65.859375Q313.98438 66.390625 312.90625 66.390625Q311.54688 66.390625 310.73438 65.546875Q309.9375 64.703125 309.9375 63.1875Q309.9375 61.625 310.75 60.765625Q311.5625 59.890625 312.84375 59.890625Q314.09375 59.890625 314.875 60.734375Q315.67188 61.578125 315.67188 63.125Q315.67188 63.21875 315.67188 63.40625L311.03125 63.40625Q311.09375 64.4375 311.60938 64.984375Q312.125 65.515625 312.90625 65.515625Q313.48438 65.515625 313.89062 65.21875Q314.3125 64.90625 314.54688 64.25ZM311.09375 62.546875L314.5625 62.546875Q314.5 61.75 314.17188 61.359375Q313.65625 60.75 312.85938 60.75Q312.125 60.75 311.625 61.234375Q311.14062 61.71875 311.09375 62.546875ZM321.35938 65.484375Q320.76562 65.984375 320.21875 66.1875Q319.6875 66.390625 319.0625 66.390625Q318.03125 66.390625 317.48438 65.890625Q316.9375 65.390625 316.9375 64.609375Q316.9375 64.15625 317.14062 63.78125Q317.34375 63.390625 317.6875 63.171875Q318.03125 62.9375 318.45312 62.828125Q318.75 62.734375 319.39062 62.65625Q320.65625 62.515625 321.26562 62.296875Q321.26562 62.078125 321.26562 62.03125Q321.26562 61.375 320.96875 61.109375Q320.5625 60.765625 319.76562 60.765625Q319.03125 60.765625 318.67188 61.03125Q318.3125 61.28125 318.14062 61.9375L317.10938 61.796875Q317.25 61.140625 317.57812 60.734375Q317.90625 60.328125 318.51562 60.109375Q319.125 59.890625 319.92188 59.890625Q320.71875 59.890625 321.21875 60.078125Q321.71875 60.265625 321.95312 60.546875Q322.1875 60.828125 322.28125 61.265625Q322.32812 61.53125 322.32812 62.234375L322.32812 63.640625Q322.32812 65.109375 322.39062 65.5Q322.46875 65.890625 322.67188 66.25L321.5625 66.25Q321.40625 65.921875 321.35938 65.484375ZM321.26562 63.125Q320.6875 63.359375 319.54688 63.53125Q318.89062 63.625 318.625 63.75Q318.35938 63.859375 318.20312 64.078125Q318.0625 64.296875 318.0625 64.578125Q318.0625 65.0 318.375 65.28125Q318.70312 65.5625 319.3125 65.5625Q319.92188 65.5625 320.39062 65.296875Q320.875 65.03125 321.09375 64.5625Q321.26562 64.203125 321.26562 63.515625L321.26562 63.125ZM328.26562 66.25L327.28125 66.25L327.28125 57.65625L328.34375 57.65625L328.34375 60.71875Q329.01562 59.890625 330.04688 59.890625Q330.625 59.890625 331.125 60.125Q331.64062 60.34375 331.96875 60.765625Q332.3125 61.1875 332.5 61.78125Q332.6875 62.375 332.6875 63.046875Q332.6875 64.640625 331.89062 65.515625Q331.09375 66.390625 330.0 66.390625Q328.89062 66.390625 328.26562 65.46875L328.26562 66.25ZM328.25 63.09375Q328.25 64.203125 328.5625 64.703125Q329.0625 65.515625 329.90625 65.515625Q330.59375 65.515625 331.09375 64.921875Q331.60938 64.328125 331.60938 63.125Q331.60938 61.90625 331.125 61.328125Q330.64062 60.75 329.95312 60.75Q329.26562 60.75 328.75 61.359375Q328.25 61.953125 328.25 63.09375ZM338.375 66.25L338.375 65.328125Q337.64062 66.390625 336.39062 66.390625Q335.84375 66.390625 335.35938 66.1875Q334.89062 65.96875 334.65625 65.65625Q334.42188 65.328125 334.32812 64.859375Q334.26562 64.5625 334.26562 63.875L334.26562 60.03125L335.32812 60.03125L335.32812 63.484375Q335.32812 64.296875 335.39062 64.59375Q335.48438 65.0 335.79688 65.25Q336.125 65.484375 336.60938 65.484375Q337.07812 65.484375 337.48438 65.25Q337.90625 65.0 338.07812 64.578125Q338.26562 64.15625 338.26562 63.359375L338.26562 60.03125L339.3125 60.03125L339.3125 66.25L338.375 66.25ZM341.28125 66.25L341.28125 60.03125L342.23438 60.03125L342.23438 60.96875Q342.59375 60.3125 342.89062 60.109375Q343.20312 59.890625 343.57812 59.890625Q344.10938 59.890625 344.65625 60.21875L344.29688 61.203125Q343.90625 60.96875 343.53125 60.96875Q343.17188 60.96875 342.89062 61.1875Q342.625 61.390625 342.51562 61.765625Q342.32812 62.328125 342.32812 62.984375L342.32812 66.25L341.28125 66.25ZM345.29688 66.25L345.29688 60.03125L346.23438 60.03125L346.23438 60.90625Q346.92188 59.890625 348.21875 59.890625Q348.78125 59.890625 349.25 60.09375Q349.73438 60.296875 349.96875 60.625Q350.20312 60.953125 350.29688 61.390625Q350.34375 61.6875 350.34375 62.421875L350.34375 66.25L349.29688 66.25L349.29688 62.46875Q349.29688 61.8125 349.17188 61.5Q349.04688 61.1875 348.73438 61.0Q348.42188 60.796875 348.0 60.796875Q347.32812 60.796875 346.82812 61.234375Q346.34375 61.65625 346.34375 62.84375L346.34375 66.25L345.29688 66.25ZM356.32812 66.25L356.32812 65.46875Q355.73438 66.390625 354.59375 66.390625Q353.84375 66.390625 353.21875 65.984375Q352.59375 65.5625 352.25 64.828125Q351.90625 64.09375 351.90625 63.140625Q351.90625 62.21875 352.21875 61.453125Q352.53125 60.6875 353.15625 60.296875Q353.78125 59.890625 354.54688 59.890625Q355.10938 59.890625 355.54688 60.125Q355.98438 60.359375 356.26562 60.734375L356.26562 57.65625L357.3125 57.65625L357.3125 66.25L356.32812 66.25ZM353.0 63.140625Q353.0 64.34375 353.5 64.9375Q354.0 65.515625 354.6875 65.515625Q355.375 65.515625 355.85938 64.953125Q356.34375 64.390625 356.34375 63.234375Q356.34375 61.953125 355.84375 61.359375Q355.35938 60.765625 354.64062 60.765625Q353.9375 60.765625 353.46875 61.34375Q353.0 61.90625 353.0 63.140625ZM358.90625 63.140625Q358.90625 61.40625 359.85938 60.578125Q360.65625 59.890625 361.8125 59.890625Q363.09375 59.890625 363.90625 60.734375Q364.73438 61.5625 364.73438 63.046875Q364.73438 64.25 364.375 64.9375Q364.01562 65.625 363.3125 66.015625Q362.625 66.390625 361.8125 66.390625Q360.51562 66.390625 359.70312 65.5625Q358.90625 64.71875 358.90625 63.140625ZM359.98438 63.140625Q359.98438 64.328125 360.5 64.921875Q361.03125 65.515625 361.8125 65.515625Q362.60938 65.515625 363.125 64.921875Q363.64062 64.328125 363.64062 63.109375Q363.64062 61.953125 363.10938 61.359375Q362.59375 60.765625 361.8125 60.765625Q361.03125 60.765625 360.5 61.359375Q359.98438 61.9375 359.98438 63.140625ZM367.4375 66.25L365.53125 60.03125L366.625 60.03125L367.60938 63.625L367.98438 64.953125Q368.01562 64.859375 368.3125 63.671875L369.29688 60.03125L370.375 60.03125L371.3125 63.640625L371.625 64.828125L371.98438 63.625L373.04688 60.03125L374.07812 60.03125L372.125 66.25L371.03125 66.25L370.04688 62.515625L369.79688 61.46875L368.54688 66.25L367.4375 66.25ZM375.29688 66.25L375.29688 60.03125L376.23438 60.03125L376.23438 60.90625Q376.92188 59.890625 378.21875 59.890625Q378.78125 59.890625 379.25 60.09375Q379.73438 60.296875 379.96875 60.625Q380.20312 60.953125 380.29688 61.390625Q380.34375 61.6875 380.34375 62.421875L380.34375 66.25L379.29688 66.25L379.29688 62.46875Q379.29688 61.8125 379.17188 61.5Q379.04688 61.1875 378.73438 61.0Q378.42188 60.796875 378.0 60.796875Q377.32812 60.796875 376.82812 61.234375Q376.34375 61.65625 376.34375 62.84375L376.34375 66.25L375.29688 66.25Z" fill-rule="nonzero"/><path fill="#ea4335" d="M397.5 57.25C397.5 56.697716 397.94772 56.25 398.5 56.25L408.5 56.25C409.05228 56.25 409.5 56.697716 409.5 57.25L409.5 67.25C409.5 67.802284 409.05228 68.25 408.5 68.25L398.5 68.25C397.94772 68.25 397.5 67.802284 397.5 67.25Z" fill-rule="nonzero"/><path fill="#1a1a1a" d="M417.48438 66.25L420.78125 57.65625L422.0 57.65625L425.51562 66.25L424.23438 66.25L423.21875 63.640625L419.64062 63.640625L418.6875 66.25L417.48438 66.25ZM419.96875 62.71875L422.875 62.71875L421.98438 60.34375Q421.5625 59.265625 421.375 58.5625Q421.20312 59.390625 420.90625 60.203125L419.96875 62.71875ZM429.35938 63.96875L430.39062 64.109375Q430.21875 65.171875 429.51562 65.78125Q428.8125 66.390625 427.79688 66.390625Q426.51562 66.390625 425.73438 65.5625Q424.96875 64.71875 424.96875 63.15625Q424.96875 62.15625 425.29688 61.40625Q425.64062 60.640625 426.3125 60.265625Q427.0 59.890625 427.8125 59.890625Q428.8125 59.890625 429.45312 60.40625Q430.10938 60.90625 430.29688 61.859375L429.26562 62.015625Q429.125 61.390625 428.75 61.078125Q428.375 60.75 427.84375 60.75Q427.04688 60.75 426.54688 61.328125Q426.04688 61.890625 426.04688 63.125Q426.04688 64.390625 426.53125 64.953125Q427.01562 65.515625 427.78125 65.515625Q428.40625 65.515625 428.8125 65.140625Q429.23438 64.765625 429.35938 63.96875ZM433.59375 65.3125L433.75 66.234375Q433.29688 66.328125 432.95312 66.328125Q432.375 66.328125 432.0625 66.15625Q431.75 65.96875 431.60938 65.671875Q431.48438 65.375 431.48438 64.421875L431.48438 60.84375L430.71875 60.84375L430.71875 60.03125L431.48438 60.03125L431.48438 58.484375L432.53125 57.859375L432.53125 60.03125L433.59375 60.03125L433.59375 60.84375L432.53125 60.84375L432.53125 64.484375Q432.53125 64.9375 432.57812 65.0625Q432.64062 65.1875 432.76562 65.265625Q432.89062 65.34375 433.125 65.34375Q433.3125 65.34375 433.59375 65.3125ZM438.375 66.25L438.375 65.328125Q437.64062 66.390625 436.39062 66.390625Q435.84375 66.390625 435.35938 66.1875Q434.89062 65.96875 434.65625 65.65625Q434.42188 65.328125 434.32812 64.859375Q434.26562 64.5625 434.26562 63.875L434.26562 60.03125L435.32812 60.03125L435.32812 63.484375Q435.32812 64.296875 435.39062 64.59375Q435.48438 65.0 435.79688 65.25Q436.125 65.484375 436.60938 65.484375Q437.07812 65.484375 437.48438 65.25Q437.90625 65.0 438.07812 64.578125Q438.26562 64.15625 438.26562 63.359375L438.26562 60.03125L439.3125 60.03125L439.3125 66.25L438.375 66.25ZM445.35938 65.484375Q444.76562 65.984375 444.21875 66.1875Q443.6875 66.390625 443.0625 66.390625Q442.03125 66.390625 441.48438 65.890625Q440.9375 65.390625 440.9375 64.609375Q440.9375 64.15625 441.14062 63.78125Q441.34375 63.390625 441.6875 63.171875Q442.03125 62.9375 442.45312 62.828125Q442.75 62.734375 443.39062 62.65625Q444.65625 62.515625 445.26562 62.296875Q445.26562 62.078125 445.26562 62.03125Q445.26562 61.375 444.96875 61.109375Q444.5625 60.765625 443.76562 60.765625Q443.03125 60.765625 442.67188 61.03125Q442.3125 61.28125 442.14062 61.9375L441.10938 61.796875Q441.25 61.140625 441.57812 60.734375Q441.90625 60.328125 442.51562 60.109375Q443.125 59.890625 443.92188 59.890625Q444.71875 59.890625 445.21875 60.078125Q445.71875 60.265625 445.95312 60.546875Q446.1875 60.828125 446.28125 61.265625Q446.32812 61.53125 446.32812 62.234375L446.32812 63.640625Q446.32812 65.109375 446.39062 65.5Q446.46875 65.890625 446.67188 66.25L445.5625 66.25Q445.40625 65.921875 445.35938 65.484375ZM445.26562 63.125Q444.6875 63.359375 443.54688 63.53125Q442.89062 63.625 442.625 63.75Q442.35938 63.859375 442.20312 64.078125Q442.0625 64.296875 442.0625 64.578125Q442.0625 65.0 442.375 65.28125Q442.70312 65.5625 443.3125 65.5625Q443.92188 65.5625 444.39062 65.296875Q444.875 65.03125 445.09375 64.5625Q445.26562 64.203125 445.26562 63.515625L445.26562 63.125ZM448.26562 66.25L448.26562 57.65625L449.32812 57.65625L449.32812 66.25L448.26562 66.25Z" fill-rule="nonzero"/><path fill="#757575" d="M251.6875 37.75L251.6875 25.125L246.96875 25.125L246.96875 23.4375L258.3125 23.4375L258.3125 25.125L253.57812 25.125L253.57812 37.75L251.6875 37.75ZM266.92188 34.40625L268.73438 34.640625Q268.3125 36.21875 267.14062 37.109375Q265.98438 37.984375 264.17188 37.984375Q261.90625 37.984375 260.5625 36.59375Q259.23438 35.1875 259.23438 32.65625Q259.23438 30.03125 260.57812 28.59375Q261.92188 27.140625 264.07812 27.140625Q266.15625 27.140625 267.46875 28.5625Q268.79688 29.96875 268.79688 32.546875Q268.79688 32.703125 268.78125 33.015625L261.04688 33.015625Q261.14062 34.71875 262.01562 35.625Q262.89062 36.53125 264.1875 36.53125Q265.15625 36.53125 265.82812 36.03125Q266.51562 35.515625 266.92188 34.40625ZM261.14062 31.5625L266.9375 31.5625Q266.82812 30.265625 266.28125 29.609375Q265.4375 28.59375 264.09375 28.59375Q262.89062 28.59375 262.0625 29.40625Q261.23438 30.203125 261.14062 31.5625ZM277.59375 36.46875Q276.60938 37.296875 275.70312 37.640625Q274.79688 37.984375 273.76562 37.984375Q272.0625 37.984375 271.14062 37.15625Q270.21875 36.3125 270.21875 35.015625Q270.21875 34.25 270.5625 33.625Q270.92188 33.0 271.48438 32.625Q272.04688 32.234375 272.75 32.03125Q273.26562 31.90625 274.3125 31.765625Q276.4375 31.515625 277.4375 31.171875Q277.45312 30.8125 277.45312 30.703125Q277.45312 29.640625 276.95312 29.1875Q276.28125 28.59375 274.95312 28.59375Q273.70312 28.59375 273.10938 29.03125Q272.53125 29.46875 272.25 30.578125L270.53125 30.34375Q270.76562 29.234375 271.29688 28.5625Q271.82812 27.875 272.84375 27.515625Q273.85938 27.140625 275.20312 27.140625Q276.53125 27.140625 277.35938 27.453125Q278.1875 27.765625 278.57812 28.25Q278.96875 28.71875 279.125 29.4375Q279.21875 29.890625 279.21875 31.0625L279.21875 33.40625Q279.21875 35.859375 279.32812 36.515625Q279.4375 37.15625 279.78125 37.75L277.9375 37.75Q277.67188 37.203125 277.59375 36.46875ZM277.4375 32.546875Q276.48438 32.9375 274.5625 33.203125Q273.48438 33.359375 273.03125 33.5625Q272.59375 33.75 272.34375 34.125Q272.09375 34.5 272.09375 34.96875Q272.09375 35.671875 272.625 36.140625Q273.15625 36.609375 274.1875 36.609375Q275.20312 36.609375 275.98438 36.171875Q276.78125 35.71875 277.15625 34.953125Q277.4375 34.34375 277.4375 33.1875L277.4375 32.546875ZM281.8125 37.75L281.8125 27.375L283.39062 27.375L283.39062 28.828125Q283.875 28.078125 284.6875 27.609375Q285.5 27.140625 286.53125 27.140625Q287.6875 27.140625 288.42188 27.625Q289.15625 28.09375 289.46875 28.953125Q290.70312 27.140625 292.67188 27.140625Q294.21875 27.140625 295.04688 28.0Q295.875 28.859375 295.875 30.625L295.875 37.75L294.125 37.75L294.125 31.21875Q294.125 30.15625 293.95312 29.703125Q293.78125 29.234375 293.32812 28.953125Q292.89062 28.671875 292.28125 28.671875Q291.1875 28.671875 290.45312 29.40625Q289.73438 30.125 289.73438 31.71875L289.73438 37.75L287.98438 37.75L287.98438 31.015625Q287.98438 29.84375 287.54688 29.265625Q287.125 28.671875 286.14062 28.671875Q285.40625 28.671875 284.76562 29.0625Q284.14062 29.453125 283.85938 30.203125Q283.57812 30.953125 283.57812 32.375L283.57812 37.75L281.8125 37.75ZM306.03125 29.984375Q304.9375 29.578125 304.40625 28.84375Q303.89062 28.09375 303.89062 27.0625Q303.89062 25.5 305.01562 24.4375Q306.14062 23.375 308.0 23.375Q309.875 23.375 311.01562 24.46875Q312.15625 25.546875 312.15625 27.109375Q312.15625 28.109375 311.625 28.84375Q311.10938 29.578125 310.04688 29.984375Q311.375 30.421875 312.0625 31.375Q312.75 32.328125 312.75 33.65625Q312.75 35.5 311.4375 36.75Q310.14062 38.0 308.03125 38.0Q305.90625 38.0 304.60938 36.75Q303.3125 35.484375 303.3125 33.609375Q303.3125 32.21875 304.01562 31.28125Q304.73438 30.328125 306.03125 29.984375ZM305.6875 27.0Q305.6875 28.015625 306.34375 28.671875Q307.0 29.3125 308.03125 29.3125Q309.04688 29.3125 309.70312 28.671875Q310.35938 28.03125 310.35938 27.109375Q310.35938 26.140625 309.6875 25.484375Q309.01562 24.8125 308.01562 24.8125Q307.01562 24.8125 306.34375 25.46875Q305.6875 26.109375 305.6875 27.0ZM305.125 33.625Q305.125 34.375 305.46875 35.078125Q305.82812 35.78125 306.53125 36.171875Q307.23438 36.546875 308.04688 36.546875Q309.3125 36.546875 310.125 35.734375Q310.95312 34.921875 310.95312 33.671875Q310.95312 32.40625 310.10938 31.578125Q309.26562 30.75 307.98438 30.75Q306.75 30.75 305.9375 31.578125Q305.125 32.390625 305.125 33.625ZM320.96875 37.75L320.96875 23.4375L326.34375 23.4375Q327.98438 23.4375 328.96875 23.875Q329.95312 24.296875 330.51562 25.203125Q331.07812 26.109375 331.07812 27.09375Q331.07812 28.015625 330.57812 28.828125Q330.09375 29.640625 329.07812 30.125Q330.375 30.515625 331.07812 31.4375Q331.78125 32.34375 331.78125 33.59375Q331.78125 34.609375 331.34375 35.46875Q330.92188 36.328125 330.29688 36.796875Q329.67188 37.265625 328.73438 37.515625Q327.79688 37.75 326.42188 37.75L320.96875 37.75ZM322.85938 29.453125L325.95312 29.453125Q327.21875 29.453125 327.76562 29.28125Q328.48438 29.0625 328.84375 28.578125Q329.21875 28.078125 329.21875 27.3125Q329.21875 26.609375 328.875 26.0625Q328.53125 25.515625 327.89062 25.328125Q327.26562 25.125 325.71875 25.125L322.85938 25.125L322.85938 29.453125ZM322.85938 36.0625L326.42188 36.0625Q327.34375 36.0625 327.71875 35.984375Q328.375 35.875 328.8125 35.609375Q329.25 35.328125 329.53125 34.8125Q329.8125 34.28125 329.8125 33.59375Q329.8125 32.796875 329.40625 32.203125Q329.0 31.609375 328.26562 31.375Q327.53125 31.140625 326.17188 31.140625L322.85938 31.140625L322.85938 36.0625ZM340.60938 37.75L340.60938 36.21875Q339.40625 37.984375 337.32812 37.984375Q336.40625 37.984375 335.60938 37.640625Q334.8125 37.28125 334.42188 36.75Q334.04688 36.21875 333.89062 35.4375Q333.78125 34.921875 333.78125 33.796875L333.78125 27.375L335.53125 27.375L335.53125 33.125Q335.53125 34.5 335.64062 34.984375Q335.8125 35.671875 336.34375 36.078125Q336.89062 36.46875 337.67188 36.46875Q338.46875 36.46875 339.15625 36.0625Q339.85938 35.65625 340.14062 34.96875Q340.4375 34.265625 340.4375 32.9375L340.4375 27.375L342.1875 27.375L342.1875 37.75L340.60938 37.75ZM343.79688 37.75L343.79688 27.375L345.375 27.375L345.375 28.953125Q345.98438 27.84375 346.5 27.5Q347.01562 27.140625 347.625 27.140625Q348.51562 27.140625 349.4375 27.703125L348.82812 29.34375Q348.1875 28.953125 347.54688 28.953125Q346.96875 28.953125 346.5 29.3125Q346.04688 29.65625 345.84375 30.265625Q345.5625 31.203125 345.5625 32.3125L345.5625 37.75L343.79688 37.75ZM350.8125 37.75L350.8125 27.375L352.40625 27.375L352.40625 28.859375Q353.54688 27.140625 355.70312 27.140625Q356.64062 27.140625 357.42188 27.484375Q358.21875 27.8125 358.60938 28.359375Q359.0 28.90625 359.15625 29.65625Q359.25 30.15625 359.25 31.375L359.25 37.75L357.48438 37.75L357.48438 31.4375Q357.48438 30.359375 357.28125 29.828125Q357.07812 29.296875 356.54688 28.984375Q356.03125 28.671875 355.32812 28.671875Q354.20312 28.671875 353.39062 29.390625Q352.57812 30.09375 352.57812 32.078125L352.57812 37.75L350.8125 37.75ZM367.54688 37.75L367.54688 36.4375Q366.5625 37.984375 364.64062 37.984375Q363.40625 37.984375 362.35938 37.296875Q361.32812 36.609375 360.75 35.390625Q360.1875 34.171875 360.1875 32.578125Q360.1875 31.015625 360.70312 29.75Q361.21875 28.484375 362.25 27.8125Q363.29688 27.140625 364.5625 27.140625Q365.5 27.140625 366.23438 27.546875Q366.96875 27.9375 367.4375 28.5625L367.4375 23.4375L369.17188 23.4375L369.17188 37.75L367.54688 37.75ZM361.98438 32.578125Q361.98438 34.5625 362.82812 35.546875Q363.67188 36.53125 364.8125 36.53125Q365.96875 36.53125 366.76562 35.59375Q367.57812 34.65625 367.57812 32.71875Q367.57812 30.59375 366.75 29.59375Q365.9375 28.59375 364.73438 28.59375Q363.5625 28.59375 362.76562 29.5625Q361.98438 30.515625 361.98438 32.578125ZM371.17188 32.5625Q371.17188 29.6875 372.76562 28.296875Q374.10938 27.140625 376.03125 27.140625Q378.17188 27.140625 379.51562 28.546875Q380.875 29.953125 380.875 32.421875Q380.875 34.421875 380.28125 35.578125Q379.6875 36.71875 378.53125 37.359375Q377.39062 37.984375 376.03125 37.984375Q373.84375 37.984375 372.5 36.59375Q371.17188 35.1875 371.17188 32.5625ZM372.96875 32.5625Q372.96875 34.5625 373.82812 35.546875Q374.70312 36.53125 376.03125 36.53125Q377.34375 36.53125 378.20312 35.546875Q379.07812 34.546875 379.07812 32.5Q379.07812 30.578125 378.20312 29.59375Q377.32812 28.59375 376.03125 28.59375Q374.70312 28.59375 373.82812 29.59375Q372.96875 30.578125 372.96875 32.5625ZM384.73438 37.75L381.5625 27.375L383.375 27.375L385.03125 33.359375L385.64062 35.59375Q385.6875 35.421875 386.17188 33.453125L387.82812 27.375L389.64062 27.375L391.1875 33.390625L391.70312 35.375L392.29688 33.375L394.07812 27.375L395.78125 27.375L392.54688 37.75L390.71875 37.75L389.0625 31.53125L388.67188 29.765625L386.5625 37.75L384.73438 37.75ZM397.8125 37.75L397.8125 27.375L399.40625 27.375L399.40625 28.859375Q400.54688 27.140625 402.70312 27.140625Q403.64062 27.140625 404.42188 27.484375Q405.21875 27.8125 405.60938 28.359375Q406.0 28.90625 406.15625 29.65625Q406.25 30.15625 406.25 31.375L406.25 37.75L404.48438 37.75L404.48438 31.4375Q404.48438 30.359375 404.28125 29.828125Q404.07812 29.296875 403.54688 28.984375Q403.03125 28.671875 402.32812 28.671875Q401.20312 28.671875 400.39062 29.390625Q399.57812 30.09375 399.57812 32.078125L399.57812 37.75L397.8125 37.75ZM424.26562 32.734375L426.15625 33.203125Q425.5625 35.546875 424.01562 36.78125Q422.46875 38.0 420.21875 38.0Q417.90625 38.0 416.45312 37.0625Q415.01562 36.109375 414.25 34.328125Q413.5 32.53125 413.5 30.484375Q413.5 28.25 414.34375 26.59375Q415.20312 24.921875 416.78125 24.0625Q418.35938 23.1875 420.25 23.1875Q422.40625 23.1875 423.85938 24.28125Q425.32812 25.375 425.90625 27.359375L424.04688 27.796875Q423.54688 26.234375 422.59375 25.53125Q421.65625 24.8125 420.21875 24.8125Q418.5625 24.8125 417.45312 25.609375Q416.34375 26.390625 415.89062 27.734375Q415.45312 29.0625 415.45312 30.46875Q415.45312 32.296875 415.98438 33.671875Q416.51562 35.03125 417.64062 35.703125Q418.76562 36.375 420.0625 36.375Q421.65625 36.375 422.76562 35.453125Q423.875 34.53125 424.26562 32.734375ZM427.8125 37.75L427.8125 23.4375L429.57812 23.4375L429.57812 28.5625Q430.8125 27.140625 432.6875 27.140625Q433.82812 27.140625 434.67188 27.59375Q435.53125 28.046875 435.89062 28.859375Q436.26562 29.65625 436.26562 31.171875L436.26562 37.75L434.51562 37.75L434.51562 31.171875Q434.51562 29.859375 433.9375 29.265625Q433.35938 28.65625 432.32812 28.65625Q431.54688 28.65625 430.84375 29.0625Q430.15625 29.46875 429.85938 30.171875Q429.57812 30.859375 429.57812 32.078125L429.57812 37.75L427.8125 37.75ZM444.59375 36.46875Q443.60938 37.296875 442.70312 37.640625Q441.79688 37.984375 440.76562 37.984375Q439.0625 37.984375 438.14062 37.15625Q437.21875 36.3125 437.21875 35.015625Q437.21875 34.25 437.5625 33.625Q437.92188 33.0 438.48438 32.625Q439.04688 32.234375 439.75 32.03125Q440.26562 31.90625 441.3125 31.765625Q443.4375 31.515625 444.4375 31.171875Q444.45312 30.8125 444.45312 30.703125Q444.45312 29.640625 443.95312 29.1875Q443.28125 28.59375 441.95312 28.59375Q440.70312 28.59375 440.10938 29.03125Q439.53125 29.46875 439.25 30.578125L437.53125 30.34375Q437.76562 29.234375 438.29688 28.5625Q438.82812 27.875 439.84375 27.515625Q440.85938 27.140625 442.20312 27.140625Q443.53125 27.140625 444.35938 27.453125Q445.1875 27.765625 445.57812 28.25Q445.96875 28.71875 446.125 29.4375Q446.21875 29.890625 446.21875 31.0625L446.21875 33.40625Q446.21875 35.859375 446.32812 36.515625Q446.4375 37.15625 446.78125 37.75L444.9375 37.75Q444.67188 37.203125 444.59375 36.46875ZM444.4375 32.546875Q443.48438 32.9375 441.5625 33.203125Q440.48438 33.359375 440.03125 33.5625Q439.59375 33.75 439.34375 34.125Q439.09375 34.5 439.09375 34.96875Q439.09375 35.671875 439.625 36.140625Q440.15625 36.609375 441.1875 36.609375Q442.20312 36.609375 442.98438 36.171875Q443.78125 35.71875 444.15625 34.953125Q444.4375 34.34375 444.4375 33.1875L444.4375 32.546875ZM448.79688 37.75L448.79688 27.375L450.375 27.375L450.375 28.953125Q450.98438 27.84375 451.5 27.5Q452.01562 27.140625 452.625 27.140625Q453.51562 27.140625 454.4375 27.703125L453.82812 29.34375Q453.1875 28.953125 452.54688 28.953125Q451.96875 28.953125 451.5 29.3125Q451.04688 29.65625 450.84375 30.265625Q450.5625 31.203125 450.5625 32.3125L450.5625 37.75L448.79688 37.75ZM459.65625 36.171875L459.90625 37.734375Q459.17188 37.890625 458.57812 37.890625Q457.625 37.890625 457.09375 37.59375Q456.57812 37.28125 456.35938 36.796875Q456.14062 36.296875 456.14062 34.71875L456.14062 28.75L454.85938 28.75L454.85938 27.375L456.14062 27.375L456.14062 24.8125L457.89062 23.75L457.89062 27.375L459.65625 27.375L459.65625 28.75L457.89062 28.75L457.89062 34.8125Q457.89062 35.5625 457.98438 35.78125Q458.07812 35.984375 458.28125 36.125Q458.5 36.25 458.89062 36.25Q459.17188 36.25 459.65625 36.171875Z" fill-rule="nonzero"/></svg>